<svg width="100" height="34" viewBox="0 0 100 34" fill="none" xmlns="http://www.w3.org/2000/svg">
<path fill-rule="evenodd" clip-rule="evenodd" d="M95.2549 23.229C97.7012 21.2427 98.96 19.1347 98.96 17C98.96 14.8653 97.7012 12.7573 95.2549 10.771C92.8127 8.78796 89.2482 6.97996 84.7994 5.45207C75.9066 2.39798 63.589 0.5 49.96 0.5C36.331 0.5 24.0135 2.39798 15.1206 5.45207C10.6718 6.97996 7.10739 8.78796 4.66515 10.771C2.21884 12.7573 0.960022 14.8653 0.960022 17C0.960022 19.1347 2.21884 21.2427 4.66515 23.229C7.10739 25.212 10.6718 27.02 15.1206 28.5479C24.0135 31.602 36.331 33.5 49.96 33.5C63.589 33.5 75.9066 31.602 84.7994 28.5479C89.2482 27.02 92.8127 25.212 95.2549 23.229ZM49.96 34C77.2981 34 99.46 26.3888 99.46 17C99.46 7.61116 77.2981 0 49.96 0C22.6219 0 0.460022 7.61116 0.460022 17C0.460022 26.3888 22.6219 34 49.96 34Z" fill="#D6FF62"/>
<g clip-path="url(#clip0_138_8973)">
<path d="M50.4611 34C41.0862 34 33.46 26.3739 33.46 17.001C33.46 7.62825 41.0862 0 50.4611 0C59.836 0 67.4621 7.62615 67.4621 17.001C67.4621 26.3759 59.836 34.0021 50.4611 34.0021V34ZM50.4611 0.637434C41.4384 0.637434 34.0975 7.97842 34.0975 17.001C34.0975 26.0237 41.4384 33.3626 50.459 33.3626C59.4795 33.3626 66.8205 26.0216 66.8205 17.001C66.8205 7.98051 59.4837 0.637434 50.4611 0.637434Z" fill="#D6FF62"/>
<path d="M50.4611 34C42.9167 34 36.7772 26.3739 36.7772 16.999C36.7772 7.62405 42.9146 0 50.4611 0C58.0076 0 64.145 7.62615 64.145 17.001C64.145 26.3759 58.0076 34.0021 50.4611 34.0021V34ZM50.4611 0.637434C43.269 0.637434 37.4168 7.97841 37.4168 16.999C37.4168 26.0195 43.269 33.3605 50.4611 33.3605C57.6532 33.3605 63.5054 26.0195 63.5054 16.999C63.5054 7.97841 57.6532 0.637434 50.4611 0.637434Z" fill="#D6FF62"/>
<path d="M50.4611 34C44.8395 34 40.2642 26.3739 40.2642 16.999C40.2642 7.62405 44.8374 0 50.4611 0C56.0848 0 60.6579 7.62615 60.6579 17.001C60.6579 26.3759 56.0848 34.0021 50.4611 34.0021V34ZM50.4611 0.637434C45.1918 0.637434 40.9038 7.97841 40.9038 16.999C40.9038 26.0195 45.1918 33.3605 50.4611 33.3605C55.7304 33.3605 60.0184 26.0195 60.0184 16.999C60.0184 7.97841 55.7304 0.637434 50.4611 0.637434Z" fill="#D6FF62"/>
<path d="M50.4611 34C46.6428 34 43.6527 26.5332 43.6527 16.999C43.6527 7.46469 46.6428 0 50.4611 0C54.2794 0 57.2695 7.46679 57.2695 17.001C57.2695 26.5353 54.2794 34.0021 50.4611 34.0021V34ZM50.4611 0.637434C47.1167 0.637434 44.2901 8.13148 44.2901 16.999C44.2901 25.8664 47.1167 33.3605 50.4611 33.3605C53.8055 33.3605 56.6321 25.8685 56.6321 16.999C56.6321 8.12939 53.8055 0.637434 50.4611 0.637434Z" fill="#D6FF62"/>
<path d="M50.4611 34C48.1084 34 46.8398 25.2416 46.8398 16.999C46.8398 8.75634 48.1084 0 50.4611 0C52.8137 0 54.0823 8.75843 54.0823 17.001C54.0823 25.2437 52.8137 34.0021 50.4611 34.0021V34ZM50.4611 0.637434C49.2428 0.637434 47.4794 6.46451 47.4794 16.999C47.4794 27.5334 49.2428 33.3605 50.4611 33.3605C51.6793 33.3605 53.4427 27.5334 53.4427 16.999C53.4427 6.46451 51.6793 0.637434 50.4611 0.637434Z" fill="#D6FF62"/>
<path d="M50.7798 0.318604H50.1423V33.6812H50.7798V0.318604Z" fill="#D6FF62"/>
<path d="M67.1413 16.6824H33.7787V17.3198H67.1413V16.6824Z" fill="#D6FF62"/>
</g>
<path d="M19.58 13.44V11.92H22.95V16H21.59L21.39 15.07C21.17 15.4233 20.8567 15.6933 20.45 15.88C20.0434 16.0666 19.59 16.16 19.09 16.16C18.05 16.16 17.22 15.8233 16.6 15.15C15.9734 14.4833 15.66 13.58 15.66 12.44C15.66 11.3 15.9867 10.3933 16.64 9.71997C17.2867 9.0533 18.19 8.71997 19.35 8.71997C20.3167 8.71997 21.1134 8.94997 21.74 9.40997C22.38 9.87664 22.7534 10.51 22.86 11.31H20.82C20.6134 10.7233 20.13 10.43 19.37 10.43C18.8567 10.43 18.4567 10.6066 18.17 10.96C17.8834 11.3133 17.74 11.8066 17.74 12.44C17.74 13.0733 17.89 13.5666 18.19 13.92C18.4967 14.2733 18.9267 14.45 19.48 14.45C19.8334 14.45 20.1367 14.36 20.39 14.18C20.65 13.9933 20.8167 13.7466 20.89 13.44H19.58Z" fill="#D6FF62"/>
<path d="M26.7507 16.16C25.804 16.16 25.0373 15.91 24.4507 15.41C23.8507 14.91 23.5507 14.1966 23.5507 13.27V8.87997H25.5507V13.29C25.5507 13.6633 25.654 13.95 25.8607 14.15C26.074 14.35 26.3707 14.45 26.7507 14.45C27.1307 14.45 27.424 14.35 27.6307 14.15C27.844 13.95 27.9507 13.6633 27.9507 13.29V8.87997H29.9507V13.27C29.9507 14.21 29.6607 14.9266 29.0807 15.42C28.494 15.9133 27.7173 16.16 26.7507 16.16Z" fill="#D6FF62"/>
<path d="M37.2475 16H35.1275L34.8275 15.07H32.0375L31.7375 16H29.6975L32.2275 8.87997H34.6275L37.2475 16ZM33.0775 11.78L32.5575 13.42H34.2875L33.7575 11.78C33.5709 11.2066 33.4575 10.83 33.4175 10.65C33.2509 11.2033 33.1375 11.58 33.0775 11.78Z" fill="#D6FF62"/>
<path d="M43.4699 14.33L43.5099 15.28C43.5232 15.5733 43.5832 15.8133 43.6899 16H41.6299C41.5499 15.8466 41.5032 15.6066 41.4899 15.28L41.4599 14.47C41.4465 14.11 41.3632 13.8666 41.2099 13.74C41.0632 13.6066 40.8232 13.54 40.4899 13.54H39.4499V16H37.4499V8.87997H40.9499C41.8565 8.87997 42.5265 9.07664 42.9599 9.46997C43.3865 9.86997 43.5999 10.3766 43.5999 10.99C43.5999 11.3566 43.5032 11.6866 43.3099 11.98C43.1232 12.2733 42.8499 12.5 42.4899 12.66C42.8499 12.7933 43.0965 12.9866 43.2299 13.24C43.3699 13.4933 43.4499 13.8566 43.4699 14.33ZM39.4499 10.44V12.08H40.6499C41.2432 12.08 41.5399 11.8066 41.5399 11.26C41.5399 10.7133 41.2432 10.44 40.6499 10.44H39.4499Z" fill="#D6FF62"/>
<path d="M51.0956 16H48.9756L48.6756 15.07H45.8856L45.5856 16H43.5456L46.0756 8.87997H48.4756L51.0956 16ZM46.9256 11.78L46.4056 13.42H48.1356L47.6056 11.78C47.4189 11.2066 47.3056 10.83 47.2656 10.65C47.0989 11.2033 46.9856 11.58 46.9256 11.78Z" fill="#D6FF62"/>
<path d="M55.8479 10.04V8.87997H57.7479V16H55.6379L54.1279 13.47C53.7213 12.7833 53.3946 12.1966 53.1479 11.71C53.1813 12.69 53.1979 13.7333 53.1979 14.84V16H51.2979V8.87997H53.4079L54.9179 11.41C55.2779 12.0233 55.6046 12.6133 55.8979 13.18C55.8646 12.2 55.8479 11.1533 55.8479 10.04Z" fill="#D6FF62"/>
<path d="M58.1491 8.87997H64.3491V10.66H62.2491V16H60.2491V10.66H58.1491V8.87997Z" fill="#D6FF62"/>
<path d="M70.3656 8.87997V10.66H66.7456V11.6H70.0456V13.26H66.7456V14.22H70.3656V16H64.7456V8.87997H70.3656Z" fill="#D6FF62"/>
<path d="M76.5328 8.87997V10.66H72.9128V11.6H76.2128V13.26H72.9128V14.22H76.5328V16H70.9128V8.87997H76.5328Z" fill="#D6FF62"/>
<path d="M77.08 8.87997H80.19C81.4233 8.87997 82.3466 9.19997 82.96 9.83997C83.5733 10.4866 83.88 11.3533 83.88 12.44C83.88 13.5266 83.5733 14.3933 82.96 15.04C82.3466 15.68 81.4233 16 80.19 16H77.08V8.87997ZM79.08 14.32H80.15C81.25 14.32 81.8 13.6933 81.8 12.44C81.8 11.1866 81.25 10.56 80.15 10.56H79.08V14.32Z" fill="#D6FF62"/>
<path d="M31.58 22.74V21.22H34.95V25.3H33.59L33.39 24.37C33.17 24.7234 32.8567 24.9934 32.45 25.18C32.0434 25.3667 31.59 25.46 31.09 25.46C30.05 25.46 29.22 25.1234 28.6 24.45C27.9734 23.7834 27.66 22.88 27.66 21.74C27.66 20.6 27.9867 19.6934 28.64 19.02C29.2867 18.3534 30.19 18.02 31.35 18.02C32.3167 18.02 33.1134 18.25 33.74 18.71C34.38 19.1767 34.7534 19.81 34.86 20.61H32.82C32.6134 20.0234 32.13 19.73 31.37 19.73C30.8567 19.73 30.4567 19.9067 30.17 20.26C29.8834 20.6134 29.74 21.1067 29.74 21.74C29.74 22.3734 29.89 22.8667 30.19 23.22C30.4967 23.5734 30.9267 23.75 31.48 23.75C31.8334 23.75 32.1367 23.66 32.39 23.48C32.65 23.2934 32.8167 23.0467 32.89 22.74H31.58Z" fill="#D6FF62"/>
<path d="M41.2707 18.18V19.96H37.6507V20.9H40.9507V22.56H37.6507V23.52H41.2707V25.3H35.6507V18.18H41.2707Z" fill="#D6FF62"/>
<path d="M46.3678 19.34V18.18H48.2678V25.3H46.1578L44.6478 22.77C44.2412 22.0834 43.9145 21.4967 43.6678 21.01C43.7012 21.99 43.7178 23.0334 43.7178 24.14V25.3H41.8178V18.18H43.9278L45.4378 20.71C45.7978 21.3234 46.1245 21.9134 46.4178 22.48C46.3845 21.5 46.3678 20.4534 46.3678 19.34Z" fill="#D6FF62"/>
<path d="M52.169 25.46C51.2224 25.46 50.4557 25.21 49.869 24.71C49.269 24.21 48.969 23.4967 48.969 22.57V18.18H50.969V22.59C50.969 22.9634 51.0724 23.25 51.279 23.45C51.4924 23.65 51.789 23.75 52.169 23.75C52.549 23.75 52.8424 23.65 53.049 23.45C53.2624 23.25 53.369 22.9634 53.369 22.59V18.18H55.369V22.57C55.369 23.51 55.079 24.2267 54.499 24.72C53.9124 25.2134 53.1357 25.46 52.169 25.46Z" fill="#D6FF62"/>
<path d="M58.0663 25.3H56.0663V18.18H58.0663V25.3Z" fill="#D6FF62"/>
<path d="M63.4143 19.34V18.18H65.3143V25.3H63.2043L61.6943 22.77C61.2877 22.0834 60.961 21.4967 60.7143 21.01C60.7477 21.99 60.7643 23.0334 60.7643 24.14V25.3H58.8643V18.18H60.9743L62.4843 20.71C62.8443 21.3234 63.171 21.9134 63.4643 22.48C63.431 21.5 63.4143 20.4534 63.4143 19.34Z" fill="#D6FF62"/>
<path d="M71.7355 18.18V19.96H68.1155V20.9H71.4155V22.56H68.1155V23.52H71.7355V25.3H66.1155V18.18H71.7355Z" fill="#D6FF62"/>
<defs>
<clipPath id="clip0_138_8973">
<rect width="34" height="34" fill="white" transform="translate(33.46)"/>
</clipPath>
</defs>
</svg>
