<svg width="56" height="25" viewBox="0 0 56 25" fill="none" xmlns="http://www.w3.org/2000/svg">
<path d="M0.390001 20.3556C0.820001 19.7456 1.57 19.4406 2.64 19.4406C3.595 19.4406 4.325 19.6331 4.83 20.0181C5.33 20.3981 5.58 20.9606 5.58 21.7056C5.58 22.2956 5.445 22.7781 5.175 23.1531C4.905 23.5231 4.525 23.7481 4.035 23.8281V22.4781C4.365 22.4031 4.53 22.1506 4.53 21.7206C4.53 21.4156 4.425 21.1931 4.215 21.0531C4 20.9081 3.6425 20.8231 3.1425 20.7981C3.4875 21.0831 3.66 21.5131 3.66 22.0881C3.66 22.6681 3.4875 23.1131 3.1425 23.4231C2.7975 23.7381 2.39 23.8956 1.92 23.8956C1.325 23.8956 0.855001 23.6906 0.510001 23.2806C0.170001 22.8656 8.76879e-07 22.3481 8.49778e-07 21.7281C8.25736e-07 21.1781 0.130001 20.7206 0.390001 20.3556ZM2.415 22.2981C2.56 22.1531 2.6325 21.9631 2.6325 21.7281C2.6325 21.4931 2.56 21.3031 2.415 21.1581C2.275 21.0181 2.0975 20.9481 1.8825 20.9481C1.6625 20.9481 1.4825 21.0181 1.3425 21.1581C1.2025 21.2981 1.1325 21.4881 1.1325 21.7281C1.1325 21.9681 1.2025 22.1581 1.3425 22.2981C1.4825 22.4381 1.6625 22.5081 1.8825 22.5081C2.0975 22.5081 2.275 22.4381 2.415 22.2981Z" fill="#D6FF62"/>
<path d="M4.8525 14.945C5.3375 15.355 5.58 15.9525 5.58 16.7375C5.58 17.5225 5.3375 18.1175 4.8525 18.5225C4.3775 18.9325 3.69 19.1375 2.79 19.1375C1.895 19.1375 1.205 18.9325 0.720001 18.5225C0.240001 18.1175 6.65945e-07 17.5225 6.31631e-07 16.7375C5.97536e-07 15.9575 0.240001 15.36 0.720001 14.945C1.21 14.54 1.9 14.3375 2.79 14.3375C3.685 14.3375 4.3725 14.54 4.8525 14.945ZM4.3575 16.7375C4.3575 16.4475 4.2375 16.235 3.9975 16.1C3.7575 15.965 3.355 15.8975 2.79 15.8975C2.23 15.8975 1.83 15.965 1.59 16.1C1.345 16.235 1.2225 16.4475 1.2225 16.7375C1.2225 17.0125 1.34 17.2225 1.575 17.3675C1.81 17.5075 2.215 17.5775 2.79 17.5775C3.365 17.5775 3.7675 17.5075 3.9975 17.3675C4.2375 17.2275 4.3575 17.0175 4.3575 16.7375Z" fill="#D6FF62"/>
<path d="M4.8525 9.84357C5.3375 10.2536 5.58 10.8511 5.58 11.6361C5.58 12.4211 5.3375 13.0161 4.8525 13.4211C4.3775 13.8311 3.69 14.0361 2.79 14.0361C1.895 14.0361 1.205 13.8311 0.720001 13.4211C0.240001 13.0161 4.42953e-07 12.4211 4.08639e-07 11.6361C3.74544e-07 10.8561 0.24 10.2586 0.72 9.84357C1.21 9.43857 1.9 9.23607 2.79 9.23607C3.685 9.23607 4.3725 9.43857 4.8525 9.84357ZM4.3575 11.6361C4.3575 11.3461 4.2375 11.1336 3.9975 10.9986C3.7575 10.8636 3.355 10.7961 2.79 10.7961C2.23 10.7961 1.83 10.8636 1.59 10.9986C1.345 11.1336 1.2225 11.3461 1.2225 11.6361C1.2225 11.9111 1.34 12.1211 1.575 12.2661C1.81 12.4061 2.215 12.4761 2.79 12.4761C3.365 12.4761 3.7675 12.4061 3.9975 12.2661C4.2375 12.1261 4.3575 11.9161 4.3575 11.6361Z" fill="#D6FF62"/>
<path d="M4.2375 7.40859L4.2375 4.75359H5.46V9.09609L4.92 9.06609C4.53 9.04109 4.2025 8.97859 3.9375 8.87859C3.7525 8.81359 3.585 8.72109 3.435 8.60109C3.095 8.32109 2.825 7.90109 2.625 7.34109L2.5125 7.01859C2.4175 6.74359 2.315 6.55109 2.205 6.44109C2.095 6.32609 1.9525 6.26859 1.7775 6.26859C1.4075 6.26859 1.2225 6.48109 1.2225 6.90609C1.2225 7.14109 1.285 7.31359 1.41 7.42359C1.53 7.53359 1.7175 7.58859 1.9725 7.58859V9.01359C1.3525 9.01859 0.87 8.84109 0.525 8.48109C0.175 8.12109 2.315e-07 7.58359 2.00246e-07 6.86859C1.71615e-07 6.21359 0.15 5.70109 0.45 5.33109C0.755 4.96609 1.145 4.78359 1.62 4.78359C2.11 4.78359 2.495 4.91609 2.775 5.18109C3.06 5.46109 3.3175 5.88109 3.5475 6.44109L3.7125 6.83859C3.7925 7.03859 3.87 7.17859 3.945 7.25859C4.02 7.33859 4.1175 7.38859 4.2375 7.40859Z" fill="#D6FF62"/>
<path d="M2.6625 0.855C2.8775 0.285 3.305 2.79753e-08 3.945 0C4.425 -2.09815e-08 4.8175 0.2025 5.1225 0.6075C5.4275 1.0075 5.58 1.5675 5.58 2.2875C5.58 3.0075 5.4275 3.5675 5.1225 3.9675C4.8175 4.3725 4.425 4.575 3.945 4.575C3.305 4.575 2.8775 4.29 2.6625 3.72C2.3975 4.14 2.01 4.35 1.5 4.35C1.045 4.35 0.6825 4.165 0.4125 3.795C0.1375 3.425 2.77567e-08 2.9225 0 2.2875C-2.77567e-08 1.6525 0.1375 1.15 0.4125 0.78C0.6825 0.41 1.045 0.225 1.5 0.225C2.01 0.225 2.3975 0.435 2.6625 0.855ZM1.1775 1.7325C1.0725 1.8575 1.02 2.0425 1.02 2.2875C1.02 2.5325 1.0725 2.7175 1.1775 2.8425C1.2925 2.9725 1.4425 3.0375 1.6275 3.0375C1.8125 3.0375 1.9575 2.9725 2.0625 2.8425C2.1675 2.7125 2.22 2.5275 2.22 2.2875C2.22 2.0475 2.1675 1.8625 2.0625 1.7325C1.9575 1.6025 1.8125 1.5375 1.6275 1.5375C1.4425 1.5375 1.2925 1.6025 1.1775 1.7325ZM4.2825 2.91C4.4025 2.775 4.4625 2.5675 4.4625 2.2875C4.4625 2.0125 4.4025 1.8025 4.2825 1.6575C4.1675 1.5225 4.0075 1.455 3.8025 1.455C3.5925 1.455 3.43 1.5275 3.315 1.6725C3.2 1.8125 3.1425 2.0175 3.1425 2.2875C3.1425 2.5575 3.2 2.765 3.315 2.91C3.43 3.05 3.5925 3.12 3.8025 3.12C4.0125 3.12 4.1725 3.05 4.2825 2.91Z" fill="#D6FF62"/>
<mask id="mask0_138_8884" style="mask-type:alpha" maskUnits="userSpaceOnUse" x="8" y="0" width="48" height="25">
<g clip-path="url(#clip0_138_8884)">
<path d="M11.5207 24.0637V0.0946943H10.0093V24.0637H11.5207Z" fill="#BFEA88"/>
<path d="M45.0746 24.0757H45.8159V0.101497H45.0746V24.0757Z" fill="#BFEA88"/>
<path d="M31.587 24.0771H32.3266V0.0918982H31.587V24.0771Z" fill="#BFEA88"/>
<path d="M47.7719 24.0764H48.5126V0.0911658H47.7719V24.0764Z" fill="#BFEA88"/>
<path d="M40.835 24.0757H41.5762V0.101497H40.835V24.0757Z" fill="#BFEA88"/>
<path d="M55.4437 0.089701H54.7047V24.075H55.4437V0.089701Z" fill="#BFEA88"/>
<path d="M20.0254 24.0764H20.7667V0.102229H20.0254V24.0764Z" fill="#BFEA88"/>
<path d="M13.0876 24.083H13.8227V0.100708H13.0876V24.083Z" fill="#BFEA88"/>
<path d="M24.2301 0.0904334H23.49V24.0757H24.2301V0.0904334Z" fill="#BFEA88"/>
<path d="M26.9603 24.083H27.6948V0.101446H26.9603V24.083Z" fill="#BFEA88"/>
<path d="M33.8972 24.083H34.6317V0.100708H33.8972V24.083Z" fill="#BFEA88"/>
<path d="M36.9492 0.0917578H36.2119V24.0623H36.9492V0.0917578Z" fill="#BFEA88"/>
<path d="M16.1371 0.0894833H15.4015V24.071H16.1371V0.0887451V0.0894833Z" fill="#BFEA88"/>
<path d="M24.6512 24.0757H25.3908V0.0911691H24.6512V24.0757Z" fill="#BFEA88"/>
<path d="M52.0133 24.0808H52.7467V0.0992491H52.0133V24.0808Z" fill="#BFEA88"/>
<path d="M50.8233 0.0917578H50.0865V24.0623H50.8233V0.0917578Z" fill="#BFEA88"/>
<path d="M46.6152 24.0757H46.9715V0.0889593H46.6152V24.0757Z" fill="#BFEA88"/>
<path d="M8.81618 0.0904219H8.45996V24.0771H8.81618V0.0904219Z" fill="#BFEA88"/>
<path d="M49.3134 24.0771H49.6684V0.0904219H49.3134V24.0771Z" fill="#BFEA88"/>
<path d="M42.3756 24.0757H42.7318V0.0889593H42.3756V24.0757Z" fill="#BFEA88"/>
<path d="M39.6794 24.0781H40.0334V0.0914007H39.6794V24.0781Z" fill="#BFEA88"/>
<path d="M53.9044 0.0911601H53.5482V24.0771H53.9044V0.0904219V0.0911601Z" fill="#BFEA88"/>
<path d="M14.9817 0.0911601H14.6255V24.0771H14.9817V0.0904219V0.0911601Z" fill="#BFEA88"/>
<path d="M35.7929 0.0831241H35.4435V24.0662H35.7929V0.0823882V0.0831241Z" fill="#BFEA88"/>
<path d="M16.9413 24.0764H17.2975V0.0896917H16.9413V24.0764Z" fill="#BFEA88"/>
<path d="M21.9179 0.0904276H21.5623V24.0764H21.9179V0.0896917V0.0904276Z" fill="#BFEA88"/>
<path d="M28.5029 24.0771H28.8586V0.0904219H28.5029V24.0771Z" fill="#BFEA88"/>
<path d="M18.8689 24.0771H19.224V0.0904219H18.8689V24.0771Z" fill="#BFEA88"/>
<path d="M30.0455 24.0781H30.4001V0.0914007H30.0455V24.0781Z" fill="#BFEA88"/>
<path d="M43.92 24.0789H44.2729V0.0921331H43.92V24.0789Z" fill="#BFEA88"/>
<path d="M22.6895 0.0926341H22.3384V24.0771H22.6895V0.0926341Z" fill="#BFEA88"/>
<path d="M17.7144 24.0757H18.0644V0.0970676H17.7144V24.0757Z" fill="#BFEA88"/>
<path d="M9.23596 24.0757H9.5854V0.0970676H9.23596V24.0757Z" fill="#BFEA88"/>
<path d="M29.6263 0.0832901H29.278V24.0781H29.6263V0.0832901Z" fill="#BFEA88"/>
<path d="M43.4985 0.0911715H43.1497V24.0757H43.4985V0.0904334V0.0911715Z" fill="#BFEA88"/>
<path d="M37.7195 0.0832901H37.3712V24.0781H37.7195V0.0832901Z" fill="#BFEA88"/>
<path d="M38.1396 24.0771H38.4936V0.0904219H38.1396V24.0771Z" fill="#BFEA88"/>
<path d="M51.5921 0.0918982H51.2421V24.0771H51.5921V0.0926341V0.0918982Z" fill="#BFEA88"/>
<path d="M32.7445 24.0781H33.0973V0.0914007H32.7445V24.0781Z" fill="#BFEA88"/>
<path d="M11.9341 24.0789H12.2869V0.0921331H11.9341V24.0789Z" fill="#BFEA88"/>
<path d="M26.1576 0.0926341H25.8076V24.0771H26.1576V0.0926341Z" fill="#BFEA88"/>
</g>
</mask>
<g mask="url(#mask0_138_8884)">
<rect x="2.16101" y="-9.30835" width="53.299" height="42.7826" fill="#D6FF62"/>
</g>
<defs>
<clipPath id="clip0_138_8884">
<rect width="47" height="24" fill="white" transform="matrix(1 0 0 -1 8.45996 24.083)"/>
</clipPath>
</defs>
</svg>
