<svg width="487" height="34" viewBox="0 0 487 34" fill="none" xmlns="http://www.w3.org/2000/svg">
<path fill-rule="evenodd" clip-rule="evenodd" d="M386.908 17.4756L385.925 17.2899C385.975 17.0273 386 16.7642 386 16.5C386 16.2358 385.975 15.9727 385.925 15.7101L386.908 15.5243C386.969 15.8472 387 16.1725 387 16.5C387 16.8275 386.969 17.1528 386.908 17.4756ZM386.23 13.6944L385.356 14.18C385.097 13.7152 384.759 13.2455 384.337 12.7733L385.083 12.1071C385.547 12.6264 385.931 13.156 386.23 13.6944ZM383.661 10.7494L383.023 11.5191C382.575 11.148 382.078 10.78 381.533 10.4163L382.088 9.58443C382.659 9.96513 383.184 10.3537 383.661 10.7494ZM380.409 8.55938L379.92 9.43162C379.39 9.13474 378.829 8.8425 378.237 8.55544L378.673 7.65561C379.281 7.95064 379.86 8.25202 380.409 8.55938ZM376.885 6.84311L376.492 7.76292C375.919 7.51839 375.323 7.27857 374.705 7.04378L375.061 6.10898C375.69 6.34824 376.299 6.59304 376.885 6.84311ZM373.21 5.44281L372.887 6.38918C372.291 6.18546 371.677 5.98623 371.046 5.79171L371.341 4.83617C371.981 5.03348 372.604 5.23576 373.21 5.44281ZM369.458 4.28243L369.188 5.24537C368.577 5.07416 367.952 4.9072 367.315 4.74466L367.562 3.77565C368.207 3.94006 368.839 4.10904 369.458 4.28243ZM365.656 3.3118L365.43 4.28587C364.809 4.14161 364.177 4.00141 363.535 3.86541L363.742 2.8871C364.39 3.02441 365.029 3.16603 365.656 3.3118ZM361.819 2.49855L361.63 3.48047C361.001 3.35925 360.363 3.24195 359.717 3.12869L359.89 2.1437C360.542 2.25792 361.185 2.37624 361.819 2.49855ZM357.953 1.82052L357.797 2.80815C357.162 2.70732 356.519 2.61031 355.869 2.51722L356.011 1.52732C356.666 1.62112 357.313 1.71889 357.953 1.82052ZM354.062 1.26271L353.935 2.25455C353.296 2.17245 352.651 2.09408 351.999 2.01953L352.113 1.02601C352.769 1.10109 353.419 1.18001 354.062 1.26271ZM350.165 0.816173L350.064 1.81111C349.422 1.74631 348.775 1.68516 348.123 1.62776L348.211 0.631606C348.867 0.689385 349.519 0.750934 350.165 0.816173ZM346.252 0.471641L346.177 1.46881C345.532 1.42013 344.882 1.37508 344.227 1.33373L344.29 0.335721C344.949 0.37732 345.603 0.422651 346.252 0.471641ZM342.334 0.223885L342.283 1.22257C341.637 1.18949 340.988 1.15999 340.334 1.13415L340.374 0.134929C341.031 0.160927 341.685 0.190602 342.334 0.223885ZM338.41 0.0685625L338.382 1.06817C337.734 1.04999 337.083 1.0354 336.429 1.02445L336.446 0.0245863C337.104 0.0355993 337.759 0.0502797 338.41 0.0685625ZM334.485 0.00274283L334.48 1.00273C334.154 1.00091 333.827 1 333.5 1C333.173 1 332.846 1.00091 332.52 1.00273L332.515 0.00274289C332.842 0.000916905 333.171 0 333.5 0C333.829 0 334.158 0.000916887 334.485 0.00274283ZM330.554 0.0245865L330.571 1.02445C329.917 1.0354 329.266 1.04999 328.618 1.06817L328.59 0.0685627C329.241 0.0502799 329.896 0.0355995 330.554 0.0245865ZM326.626 0.134929L326.666 1.13415C326.012 1.15999 325.363 1.18949 324.717 1.22257L324.666 0.223885C325.315 0.190602 325.969 0.160927 326.626 0.134929ZM322.71 0.335721L322.773 1.33373C322.118 1.37508 321.468 1.42013 320.823 1.46881L320.748 0.471641C321.397 0.422652 322.051 0.37732 322.71 0.335721ZM318.789 0.631607L318.877 1.62776C318.225 1.68516 317.578 1.74631 316.936 1.81111L316.835 0.816173C317.481 0.750935 318.133 0.689386 318.789 0.631607ZM314.887 1.02601L315.001 2.01953C314.349 2.09408 313.704 2.17245 313.065 2.25455L312.938 1.26271C313.581 1.18001 314.231 1.10109 314.887 1.02601ZM310.989 1.52732L311.131 2.51722C310.481 2.61031 309.838 2.70732 309.203 2.80815L309.047 1.82052C309.687 1.71889 310.334 1.62112 310.989 1.52732ZM307.11 2.1437L307.283 3.12869C306.637 3.24195 305.999 3.35925 305.37 3.48046L305.181 2.49855C305.815 2.37624 306.458 2.25792 307.11 2.1437ZM303.258 2.8871L303.466 3.86541C302.823 4.00141 302.191 4.14161 301.57 4.28587L301.344 3.3118C301.971 3.16603 302.61 3.02441 303.258 2.8871ZM299.438 3.77565L299.685 4.74466C299.048 4.9072 298.423 5.07416 297.812 5.24537L297.542 4.28243C298.161 4.10904 298.793 3.94005 299.438 3.77565ZM295.659 4.83617L295.954 5.79171C295.323 5.98623 294.709 6.18546 294.113 6.38918L293.79 5.44281C294.396 5.23576 295.019 5.03348 295.659 4.83617ZM291.939 6.10898L292.295 7.04378C291.677 7.27857 291.081 7.51839 290.508 7.76292L290.115 6.84311C290.701 6.59304 291.31 6.34824 291.939 6.10898ZM288.327 7.65561L288.763 8.55545C288.171 8.8425 287.61 9.13474 287.08 9.43162L286.591 8.55938C287.14 8.25202 287.719 7.95064 288.327 7.65561ZM284.912 9.58443L285.467 10.4163C284.922 10.78 284.425 11.148 283.977 11.5191L283.339 10.7494C283.816 10.3537 284.341 9.96513 284.912 9.58443ZM281.917 12.1071L282.663 12.7733C282.241 13.2455 281.903 13.7152 281.644 14.18L280.77 13.6944C281.069 13.156 281.453 12.6264 281.917 12.1071ZM280.092 15.5244C280.031 15.8472 280 16.1725 280 16.5C280 16.8275 280.031 17.1528 280.092 17.4757L281.075 17.2899C281.025 17.0273 281 16.7642 281 16.5C281 16.2358 281.025 15.9727 281.075 15.7101L280.092 15.5244ZM280.77 19.3056L281.644 18.82C281.903 19.2848 282.241 19.7545 282.663 20.2267L281.917 20.8929C281.453 20.3736 281.069 19.844 280.77 19.3056ZM283.339 22.2506C283.816 22.6463 284.341 23.0349 284.912 23.4156L285.467 22.5837C284.922 22.22 284.425 21.852 283.977 21.4809L283.339 22.2506ZM286.591 24.4406L287.08 23.5684C287.61 23.8653 288.171 24.1575 288.763 24.4446L288.327 25.3444C287.719 25.0494 287.14 24.748 286.591 24.4406ZM290.115 26.1569L290.508 25.2371C291.081 25.4816 291.677 25.7214 292.295 25.9562L291.939 26.891C291.31 26.6518 290.701 26.407 290.115 26.1569ZM293.79 27.5572L294.113 26.6108C294.709 26.8145 295.323 27.0138 295.954 27.2083L295.659 28.1638C295.019 27.9665 294.396 27.7642 293.79 27.5572ZM297.542 28.7176C298.161 28.891 298.793 29.0599 299.438 29.2243L299.685 28.2553C299.048 28.0928 298.423 27.9258 297.812 27.7546L297.542 28.7176ZM301.344 29.6882L301.57 28.7141C302.191 28.8584 302.823 28.9986 303.465 29.1346L303.258 30.1129C302.61 29.9756 301.971 29.834 301.344 29.6882ZM305.181 30.5015L305.37 29.5195C305.999 29.6407 306.637 29.758 307.283 29.8713L307.11 30.8563C306.458 30.7421 305.815 30.6238 305.181 30.5015ZM309.047 31.1795L309.203 30.1919C309.838 30.2927 310.481 30.3897 311.131 30.4828L310.989 31.4727C310.334 31.3789 309.687 31.2811 309.047 31.1795ZM312.938 31.7373C313.581 31.82 314.231 31.8989 314.887 31.974L315.001 30.9805C314.349 30.9059 313.704 30.8275 313.065 30.7455L312.938 31.7373ZM316.835 32.1838L316.936 31.1889C317.578 31.2537 318.225 31.3148 318.877 31.3722L318.789 32.3684C318.133 32.3106 317.481 32.2491 316.835 32.1838ZM320.748 32.5284L320.823 31.5312C321.468 31.5799 322.118 31.6249 322.773 31.6663L322.71 32.6643C322.051 32.6227 321.397 32.5773 320.748 32.5284ZM324.666 32.7761L324.717 31.7774C325.363 31.8105 326.012 31.84 326.666 31.8659L326.626 32.8651C325.969 32.8391 325.315 32.8094 324.666 32.7761ZM328.59 32.9314L328.618 31.9318C329.266 31.95 329.917 31.9646 330.571 31.9756L330.554 32.9754C329.896 32.9644 329.241 32.9497 328.59 32.9314ZM332.515 32.9973C332.842 32.9991 333.171 33 333.5 33C333.829 33 334.158 32.9991 334.485 32.9973L334.48 31.9973C334.154 31.9991 333.827 32 333.5 32C333.173 32 332.846 31.9991 332.52 31.9973L332.515 32.9973ZM336.446 32.9754L336.429 31.9756C337.083 31.9646 337.734 31.95 338.382 31.9318L338.41 32.9314C337.759 32.9497 337.104 32.9644 336.446 32.9754ZM340.374 32.8651L340.334 31.8659C340.988 31.84 341.637 31.8105 342.283 31.7774L342.334 32.7761C341.685 32.8094 341.031 32.8391 340.374 32.8651ZM344.29 32.6643L344.227 31.6663C344.882 31.6249 345.532 31.5799 346.177 31.5312L346.252 32.5284C345.603 32.5773 344.949 32.6227 344.29 32.6643ZM348.211 32.3684L348.123 31.3722C348.775 31.3148 349.422 31.2537 350.064 31.1889L350.165 32.1838C349.519 32.2491 348.867 32.3106 348.211 32.3684ZM352.113 31.974L351.999 30.9805C352.651 30.9059 353.296 30.8275 353.935 30.7455L354.062 31.7373C353.419 31.82 352.769 31.8989 352.113 31.974ZM356.011 31.4727L355.869 30.4828C356.519 30.3897 357.162 30.2927 357.797 30.1919L357.953 31.1795C357.313 31.2811 356.666 31.3789 356.011 31.4727ZM359.89 30.8563C360.542 30.7421 361.185 30.6238 361.819 30.5015L361.63 29.5195C361.001 29.6407 360.363 29.758 359.717 29.8713L359.89 30.8563ZM363.742 30.1129L363.534 29.1346C364.177 28.9986 364.809 28.8584 365.43 28.7141L365.656 29.6882C365.029 29.834 364.39 29.9756 363.742 30.1129ZM367.562 29.2244L367.315 28.2553C367.952 28.0928 368.577 27.9258 369.188 27.7546L369.458 28.7176C368.839 28.891 368.207 29.0599 367.562 29.2244ZM371.341 28.1638L371.046 27.2083C371.677 27.0138 372.291 26.8145 372.887 26.6108L373.21 27.5572C372.604 27.7642 371.981 27.9665 371.341 28.1638ZM375.061 26.891L374.705 25.9562C375.323 25.7214 375.919 25.4816 376.492 25.2371L376.885 26.1569C376.299 26.407 375.69 26.6518 375.061 26.891ZM378.673 25.3444L378.237 24.4446C378.829 24.1575 379.39 23.8653 379.92 23.5684L380.409 24.4406C379.86 24.748 379.281 25.0494 378.673 25.3444ZM382.088 23.4156L381.533 22.5837C382.078 22.22 382.575 21.852 383.023 21.4809L383.661 22.2506C383.184 22.6463 382.659 23.0349 382.088 23.4156ZM385.083 20.8929L384.337 20.2267C384.759 19.7545 385.097 19.2848 385.356 18.82L386.23 19.3056C385.931 19.844 385.547 20.3736 385.083 20.8929Z" fill="#D6FF62"/>
<path d="M295.181 14.9999L297.681 7.99988H298.671L301.161 14.9999H300.221L299.511 12.9099H296.831L296.131 14.9999H295.181ZM297.101 12.1099H299.241L298.531 9.99988C298.411 9.62988 298.271 9.16988 298.171 8.86988H298.161C298.041 9.23988 297.951 9.55988 297.801 9.99988L297.101 12.1099Z" fill="#D6FF62"/>
<path d="M301.609 14.9999V7.99988H303.869C305.829 7.99988 306.909 9.37988 306.909 11.4999C306.909 13.7099 305.779 14.9999 303.859 14.9999H301.609ZM302.509 14.2199H303.769C304.539 14.2199 305.119 13.9799 305.429 13.5099C305.779 12.9799 305.889 12.3799 305.889 11.4999C305.889 10.6099 305.759 9.97988 305.439 9.47988C305.119 8.98988 304.529 8.77988 303.769 8.77988H302.509V14.2199Z" fill="#D6FF62"/>
<path d="M309.262 14.9999L306.872 7.99988H307.852L309.112 12.0099C309.452 13.0999 309.662 13.7799 309.722 13.9899H309.742C309.792 13.8399 310.002 13.0999 310.352 12.0099L311.612 7.99988H312.592L310.202 14.9999H309.262Z" fill="#D6FF62"/>
<path d="M315.576 15.1199C313.646 15.1199 312.566 13.8399 312.566 11.4999C312.566 9.35988 313.616 7.87988 315.576 7.87988C317.506 7.87988 318.566 9.36988 318.566 11.4999C318.566 13.6499 317.506 15.1199 315.576 15.1199ZM313.596 11.4999C313.596 12.4999 313.756 13.2699 314.086 13.6899C314.416 14.1099 314.936 14.3399 315.576 14.3399C316.216 14.3399 316.706 14.1299 317.016 13.7099C317.386 13.2199 317.546 12.4599 317.546 11.4999C317.546 10.5899 317.406 9.86988 317.076 9.36988C316.766 8.89988 316.266 8.65988 315.616 8.65988C314.896 8.65988 314.376 8.92988 314.096 9.30988C313.746 9.77988 313.596 10.5599 313.596 11.4999Z" fill="#D6FF62"/>
<path d="M321.872 15.1199C319.932 15.1199 318.872 13.8399 318.872 11.4999C318.872 9.37988 319.892 7.87988 321.892 7.87988C323.212 7.87988 324.272 8.59988 324.622 10.0199L323.642 10.2099C323.452 9.34988 322.922 8.65988 321.912 8.65988C321.252 8.65988 320.742 8.85988 320.402 9.31988C320.032 9.80988 319.892 10.5499 319.892 11.4999C319.892 12.4299 320.012 13.1499 320.362 13.6499C320.682 14.0999 321.202 14.3399 321.882 14.3399C322.852 14.3399 323.382 13.7199 323.652 12.9099L324.662 13.1699C324.152 14.4599 323.222 15.1199 321.872 15.1199Z" fill="#D6FF62"/>
<path d="M324.544 14.9999L327.044 7.99988H328.034L330.524 14.9999H329.584L328.874 12.9099H326.194L325.494 14.9999H324.544ZM326.464 12.1099H328.604L327.894 9.99988C327.774 9.62988 327.634 9.16988 327.534 8.86988H327.524C327.404 9.23988 327.314 9.55988 327.164 9.99988L326.464 12.1099Z" fill="#D6FF62"/>
<path d="M332.3 14.9999V8.78988H330.06V7.99988H335.45V8.78988H333.21V14.9999H332.3Z" fill="#D6FF62"/>
<path d="M336.047 14.9999V14.2099H336.877V8.78988H336.047V7.99988H338.617V8.78988H337.787V14.2099H338.617V14.9999H336.047Z" fill="#D6FF62"/>
<path d="M339.691 14.9999V7.99988H340.691L343.091 12.1599C343.351 12.6099 343.631 13.1699 343.921 13.7199H343.941C343.911 13.1399 343.881 12.2499 343.881 11.9599V7.99988H344.771V14.9999H343.751L341.351 10.7899C341.201 10.5199 340.811 9.74988 340.541 9.21988H340.521C340.551 9.88988 340.581 10.7999 340.581 10.9899V14.9999H339.691Z" fill="#D6FF62"/>
<path d="M348.383 15.1199C346.443 15.1199 345.383 13.8399 345.383 11.4999C345.383 9.35988 346.403 7.87988 348.403 7.87988C349.763 7.87988 350.743 8.58988 351.103 9.99988L350.123 10.1899C349.923 9.34988 349.433 8.65988 348.423 8.65988C347.743 8.65988 347.213 8.88988 346.883 9.33988C346.543 9.82988 346.393 10.5699 346.393 11.4999C346.393 12.4299 346.513 13.1799 346.843 13.6499C347.203 14.1499 347.713 14.3399 348.483 14.3399C349.623 14.3399 350.263 13.5699 350.303 12.1399H348.483V11.2899H351.163V14.9999H350.433L350.353 14.0999C349.933 14.7699 349.243 15.1199 348.383 15.1199Z" fill="#D6FF62"/>
<path d="M355.729 14.9999V7.99988H360.149V8.80988H356.629V11.0599H359.779V11.8699H356.629V14.9999H355.729Z" fill="#D6FF62"/>
<path d="M363.399 15.1199C361.469 15.1199 360.389 13.8399 360.389 11.4999C360.389 9.35988 361.439 7.87988 363.399 7.87988C365.329 7.87988 366.389 9.36988 366.389 11.4999C366.389 13.6499 365.329 15.1199 363.399 15.1199ZM361.419 11.4999C361.419 12.4999 361.579 13.2699 361.909 13.6899C362.239 14.1099 362.759 14.3399 363.399 14.3399C364.039 14.3399 364.529 14.1299 364.839 13.7099C365.209 13.2199 365.369 12.4599 365.369 11.4999C365.369 10.5899 365.229 9.86988 364.899 9.36988C364.589 8.89988 364.089 8.65988 363.439 8.65988C362.719 8.65988 362.199 8.92988 361.919 9.30988C361.569 9.77988 361.419 10.5599 361.419 11.4999Z" fill="#D6FF62"/>
<path d="M366.995 14.9999V7.99988H369.245C370.475 7.99988 371.975 8.15988 371.975 10.0599C371.975 10.9199 371.505 11.5599 370.895 11.7699C371.555 12.0199 371.805 12.5299 371.805 13.2499C371.805 14.0599 371.865 14.5399 372.205 14.9699L372.195 14.9999H371.205C370.975 14.6499 370.905 14.3199 370.905 13.3499C370.905 12.4199 370.545 12.0999 369.335 12.0999H367.895V14.9999H366.995ZM367.895 11.3299H369.235C370.085 11.3299 371.085 11.2599 371.085 10.0999C371.085 8.77988 370.085 8.77988 369.245 8.77988H367.895V11.3299Z" fill="#D6FF62"/>
<path d="M303.121 16.8797V18.6597H299.501V19.5997H302.801V21.2597H299.501V22.2197H303.121V23.9997H297.501V16.8797H303.121Z" fill="#D6FF62"/>
<path d="M303.268 16.8797H309.468V18.6597H307.368V23.9997H305.368V18.6597H303.268V16.8797Z" fill="#D6FF62"/>
<path d="M314.315 19.4797V16.8797H316.315V23.9997H314.315V21.2597H311.865V23.9997H309.865V16.8797H311.865V19.4797H314.315Z" fill="#D6FF62"/>
<path d="M319.116 23.9997H317.116V16.8797H319.116V23.9997Z" fill="#D6FF62"/>
<path d="M323.264 24.1597C322.157 24.1597 321.274 23.8231 320.614 23.1497C319.947 22.4831 319.614 21.5797 319.614 20.4397C319.614 19.2997 319.941 18.3931 320.594 17.7197C321.241 17.0531 322.131 16.7197 323.264 16.7197C324.177 16.7197 324.957 16.9664 325.604 17.4597C326.237 17.9597 326.621 18.6497 326.754 19.5297H324.734C324.641 19.1764 324.464 18.9064 324.204 18.7197C323.944 18.5264 323.631 18.4297 323.264 18.4297C322.751 18.4297 322.361 18.6031 322.094 18.9497C321.827 19.2964 321.694 19.7931 321.694 20.4397C321.694 21.0864 321.827 21.5831 322.094 21.9297C322.361 22.2764 322.751 22.4497 323.264 22.4497C323.664 22.4497 323.994 22.3431 324.254 22.1297C324.521 21.9097 324.691 21.6031 324.764 21.2097H326.764C326.651 22.1431 326.277 22.8664 325.644 23.3797C325.004 23.8997 324.211 24.1597 323.264 24.1597Z" fill="#D6FF62"/>
<path d="M333.96 23.9997H331.84L331.54 23.0697H328.75L328.45 23.9997H326.41L328.94 16.8797H331.34L333.96 23.9997ZM329.79 19.7797L329.27 21.4197H331L330.47 19.7797C330.283 19.2064 330.17 18.8297 330.13 18.6497C329.963 19.2031 329.85 19.5797 329.79 19.7797Z" fill="#D6FF62"/>
<path d="M336.162 16.8797V22.2197H339.312V23.9997H334.162V16.8797H336.162Z" fill="#D6FF62"/>
<path d="M368.5 23.9999H366.38L366.08 23.0699H363.29L362.99 23.9999H360.95L363.48 16.8799H365.88L368.5 23.9999ZM364.33 19.7799L363.81 21.4199H365.54L365.01 19.7799C364.824 19.2065 364.71 18.8299 364.67 18.6499C364.504 19.2032 364.39 19.5799 364.33 19.7799Z" fill="#D6FF62"/>
<path d="M370.703 23.9999H368.703V16.8799H370.703V23.9999Z" fill="#D6FF62"/>
<path d="M361.001 20.6199L348.046 23.9995V22.1883L341.001 23.9976V20.3752L350.394 17.963V19.7741L361.001 16.9995V20.6199Z" fill="#D6FF62"/>
<mask id="mask0_222_1260" style="mask-type:alpha" maskUnits="userSpaceOnUse" x="408" y="1" width="79" height="26">
<g clip-path="url(#clip0_222_1260)">
<path d="M413.145 26.063V1.01235H410.604V26.063H413.145Z" fill="#BFEA88"/>
<path d="M469.544 26.0752H470.79V1.01917H469.544V26.0752Z" fill="#BFEA88"/>
<path d="M446.873 26.0767H448.116V1.00906H446.873V26.0767Z" fill="#BFEA88"/>
<path d="M474.077 26.0762H475.322V1.00858H474.077V26.0762Z" fill="#BFEA88"/>
<path d="M462.418 26.0752H463.664V1.01917H462.418V26.0752Z" fill="#BFEA88"/>
<path d="M486.973 1.00711H485.73V26.0747H486.973V1.00711Z" fill="#BFEA88"/>
<path d="M427.439 26.0762H428.685V1.02014H427.439V26.0762Z" fill="#BFEA88"/>
<path d="M415.778 26.083H417.014V1.0185H415.778V26.083Z" fill="#BFEA88"/>
<path d="M434.508 1.0076H433.264V26.0752H434.508V1.0076Z" fill="#BFEA88"/>
<path d="M439.097 26.083H440.331V1.01927H439.097V26.083Z" fill="#BFEA88"/>
<path d="M450.756 26.083H451.99V1.0185H450.756V26.083Z" fill="#BFEA88"/>
<path d="M455.886 1.00935H454.646V26.0615H455.886V1.00935Z" fill="#BFEA88"/>
<path d="M420.904 1.00706H419.668V26.0708H420.904V1.00629V1.00706Z" fill="#BFEA88"/>
<path d="M435.215 26.0752H436.458V1.00837H435.215V26.0752Z" fill="#BFEA88"/>
<path d="M481.207 26.0806H482.44V1.01683H481.207V26.0806Z" fill="#BFEA88"/>
<path d="M479.206 1.00935H477.968V26.0615H479.206V1.00935Z" fill="#BFEA88"/>
<path d="M472.134 26.0752H472.733V1.00606H472.134V26.0752Z" fill="#BFEA88"/>
<path d="M408.599 1.00752H408V26.0767H408.599V1.00752Z" fill="#BFEA88"/>
<path d="M476.669 26.0767H477.266V1.00752H476.669V26.0767Z" fill="#BFEA88"/>
<path d="M465.007 26.0752H465.606V1.00606H465.007V26.0752Z" fill="#BFEA88"/>
<path d="M460.476 26.0776H461.071V1.0085H460.476V26.0776Z" fill="#BFEA88"/>
<path d="M484.386 1.0083H483.787V26.0767H484.386V1.00752V1.0083Z" fill="#BFEA88"/>
<path d="M418.962 1.0083H418.363V26.0767H418.962V1.00752V1.0083Z" fill="#BFEA88"/>
<path d="M453.943 1.00015H453.355V26.0654H453.943V0.99938V1.00015Z" fill="#BFEA88"/>
<path d="M422.256 26.0762H422.855V1.00704H422.256V26.0762Z" fill="#BFEA88"/>
<path d="M430.621 1.00781H430.023V26.0762H430.621V1.00704V1.00781Z" fill="#BFEA88"/>
<path d="M441.689 26.0767H442.287V1.00752H441.689V26.0767Z" fill="#BFEA88"/>
<path d="M425.496 26.0767H426.093V1.00752H425.496V26.0767Z" fill="#BFEA88"/>
<path d="M444.282 26.0776H444.878V1.0085H444.282V26.0776Z" fill="#BFEA88"/>
<path d="M467.604 26.0786H468.197V1.00948H467.604V26.0786Z" fill="#BFEA88"/>
<path d="M431.917 1.00984H431.327V26.0767H431.917V1.00984Z" fill="#BFEA88"/>
<path d="M423.556 26.0752H424.144V1.01454H423.556V26.0752Z" fill="#BFEA88"/>
<path d="M409.305 26.0752H409.892V1.01454H409.305V26.0752Z" fill="#BFEA88"/>
<path d="M443.578 1.00003H442.992V26.0776H443.578V1.00003Z" fill="#BFEA88"/>
<path d="M466.895 1.00837H466.309V26.0752H466.895V1.0076V1.00837Z" fill="#BFEA88"/>
<path d="M457.181 1.00003H456.596V26.0776H457.181V1.00003Z" fill="#BFEA88"/>
<path d="M457.887 26.0767H458.482V1.00752H457.887V26.0767Z" fill="#BFEA88"/>
<path d="M480.498 1.00906H479.91V26.0767H480.498V1.00983V1.00906Z" fill="#BFEA88"/>
<path d="M448.818 26.0776H449.411V1.0085H448.818V26.0776Z" fill="#BFEA88"/>
<path d="M413.84 26.0786H414.433V1.00948H413.84V26.0786Z" fill="#BFEA88"/>
<path d="M437.747 1.00984H437.159V26.0767H437.747V1.00984Z" fill="#BFEA88"/>
</g>
</mask>
<g mask="url(#mask0_222_1260)">
<path d="M397.413 -8.81494H487.001V35.8982H397.413V-8.81494Z" fill="#D6FF62"/>
</g>
<path d="M467.208 33.0958C466.16 33.0958 465.616 32.4718 465.52 31.6078L466.424 31.4478C466.472 31.9118 466.688 32.3118 467.248 32.3118C468.008 32.3118 468.352 31.6478 468.376 30.3838C468.096 30.8478 467.68 31.1358 467.104 31.1358C466.064 31.1358 465.384 30.3678 465.384 29.3038C465.384 28.4478 465.888 27.4238 467.312 27.4238C468.928 27.4238 469.288 28.8958 469.288 30.1038C469.288 31.8718 468.768 33.0958 467.208 33.0958ZM466.336 29.3198C466.336 29.9678 466.616 30.3358 467.28 30.3358C467.912 30.3358 468.256 29.8878 468.256 29.2638C468.256 28.7198 468.008 28.2158 467.32 28.2158C466.624 28.2158 466.336 28.5758 466.336 29.3198Z" fill="#D6FF62"/>
<path d="M471.67 33.0958C470.318 33.0958 469.606 32.1278 469.606 30.2558C469.606 28.5918 470.27 27.4238 471.67 27.4238C473.078 27.4238 473.75 28.5998 473.75 30.2558C473.75 31.9358 473.078 33.0958 471.67 33.0958ZM470.622 30.2558C470.622 30.7118 470.646 31.0958 470.71 31.3998L472.182 28.3438C472.046 28.2638 471.878 28.2238 471.67 28.2238C471.294 28.2238 471.046 28.3598 470.886 28.6318C470.678 28.9598 470.622 29.5038 470.622 30.2558ZM471.118 32.1598C471.262 32.2638 471.438 32.3118 471.67 32.3118C471.998 32.3118 472.23 32.2078 472.39 31.9998C472.654 31.6718 472.726 31.0798 472.726 30.2558C472.726 29.7598 472.702 29.3518 472.622 29.0398L471.118 32.1598Z" fill="#D6FF62"/>
<path d="M476.08 33.0958C474.728 33.0958 474.016 32.1278 474.016 30.2558C474.016 28.5918 474.68 27.4238 476.08 27.4238C477.488 27.4238 478.16 28.5998 478.16 30.2558C478.16 31.9358 477.488 33.0958 476.08 33.0958ZM475.032 30.2558C475.032 30.7118 475.056 31.0958 475.12 31.3998L476.592 28.3438C476.456 28.2638 476.288 28.2238 476.08 28.2238C475.704 28.2238 475.456 28.3598 475.296 28.6318C475.088 28.9598 475.032 29.5038 475.032 30.2558ZM475.528 32.1598C475.672 32.2638 475.848 32.3118 476.08 32.3118C476.408 32.3118 476.64 32.2078 476.8 31.9998C477.064 31.6718 477.136 31.0798 477.136 30.2558C477.136 29.7598 477.112 29.3518 477.032 29.0398L475.528 32.1598Z" fill="#D6FF62"/>
<path d="M478.419 32.9998C478.491 31.6558 479.147 30.9998 480.051 30.4318C480.659 30.0478 481.243 29.7438 481.243 29.0478C481.243 28.5438 481.003 28.2158 480.475 28.2158C479.707 28.2158 479.603 28.8558 479.611 29.3198L478.619 29.1758C478.603 28.3358 479.091 27.4238 480.507 27.4238C481.547 27.4238 482.227 28.0318 482.227 29.0718C482.227 30.0238 481.635 30.4878 480.811 30.9998C480.211 31.3678 479.715 31.6638 479.579 32.1838H482.235V32.9998H478.419Z" fill="#D6FF62"/>
<path d="M484.619 33.0958C483.411 33.0958 482.643 32.4558 482.643 31.4158C482.643 30.6718 482.947 30.2158 483.595 30.0238C483.147 29.8158 482.867 29.4478 482.867 28.8718C482.867 28.1038 483.395 27.4238 484.627 27.4238C485.851 27.4238 486.371 28.1038 486.371 28.8718C486.371 29.4478 486.083 29.8158 485.651 30.0158C486.315 30.2078 486.595 30.6798 486.595 31.4158C486.595 32.5118 485.755 33.0958 484.619 33.0958ZM483.611 31.3758C483.611 31.9678 483.987 32.3438 484.619 32.3438C485.259 32.3438 485.627 31.9678 485.627 31.3758C485.627 30.8158 485.259 30.4558 484.619 30.4558C484.011 30.4558 483.611 30.7918 483.611 31.3758ZM483.811 28.9438C483.811 29.3998 484.083 29.7198 484.619 29.7198C485.147 29.7198 485.427 29.3998 485.427 28.9438C485.427 28.4638 485.155 28.1758 484.619 28.1758C484.067 28.1758 483.811 28.4718 483.811 28.9438Z" fill="#D6FF62"/>
<path d="M409.144 33.0078V32.1998H409.848V29.0238C409.608 29.2718 409.184 29.3678 408.736 29.3678C408.656 29.3678 408.576 29.3598 408.504 29.3518V28.5278C409.384 28.5278 409.864 28.2158 409.992 27.5198H410.792V32.1998H411.416V33.0078H409.144Z" fill="#D6FF62"/>
<path d="M413.904 33.0958C412.696 33.0958 411.928 32.4558 411.928 31.4158C411.928 30.6718 412.232 30.2158 412.88 30.0238C412.432 29.8158 412.152 29.4478 412.152 28.8718C412.152 28.1038 412.68 27.4238 413.912 27.4238C415.136 27.4238 415.656 28.1038 415.656 28.8718C415.656 29.4478 415.368 29.8158 414.936 30.0158C415.6 30.2078 415.88 30.6798 415.88 31.4158C415.88 32.5118 415.04 33.0958 413.904 33.0958ZM412.896 31.3758C412.896 31.9678 413.272 32.3438 413.904 32.3438C414.544 32.3438 414.912 31.9678 414.912 31.3758C414.912 30.8158 414.544 30.4558 413.904 30.4558C413.296 30.4558 412.896 30.7918 412.896 31.3758ZM413.096 28.9438C413.096 29.3998 413.368 29.7198 413.904 29.7198C414.432 29.7198 414.712 29.3998 414.712 28.9438C414.712 28.4638 414.44 28.1758 413.904 28.1758C413.352 28.1758 413.096 28.4718 413.096 28.9438Z" fill="#D6FF62"/>
<path d="M418.246 33.0958C416.894 33.0958 416.182 32.1278 416.182 30.2558C416.182 28.5918 416.846 27.4238 418.246 27.4238C419.654 27.4238 420.326 28.5998 420.326 30.2558C420.326 31.9358 419.654 33.0958 418.246 33.0958ZM417.198 30.2558C417.198 30.7118 417.222 31.0958 417.286 31.3998L418.758 28.3438C418.622 28.2638 418.454 28.2238 418.246 28.2238C417.87 28.2238 417.622 28.3598 417.462 28.6318C417.254 28.9598 417.198 29.5038 417.198 30.2558ZM417.694 32.1598C417.838 32.2638 418.014 32.3118 418.246 32.3118C418.574 32.3118 418.806 32.2078 418.966 31.9998C419.23 31.6718 419.302 31.0798 419.302 30.2558C419.302 29.7598 419.278 29.3518 419.198 29.0398L417.694 32.1598Z" fill="#D6FF62"/>
<path d="M422.656 33.0958C421.304 33.0958 420.592 32.1278 420.592 30.2558C420.592 28.5918 421.256 27.4238 422.656 27.4238C424.064 27.4238 424.736 28.5998 424.736 30.2558C424.736 31.9358 424.064 33.0958 422.656 33.0958ZM421.608 30.2558C421.608 30.7118 421.632 31.0958 421.696 31.3998L423.168 28.3438C423.032 28.2638 422.864 28.2238 422.656 28.2238C422.28 28.2238 422.032 28.3598 421.872 28.6318C421.664 28.9598 421.608 29.5038 421.608 30.2558ZM422.104 32.1598C422.248 32.2638 422.424 32.3118 422.656 32.3118C422.984 32.3118 423.216 32.2078 423.376 31.9998C423.64 31.6718 423.712 31.0798 423.712 30.2558C423.712 29.7598 423.688 29.3518 423.608 29.0398L422.104 32.1598Z" fill="#D6FF62"/>
<rect x="180.5" y="3.5" width="53.7398" height="10.24" rx="5.12" stroke="#D6FF62"/>
<path d="M184 12.12V5.12H188.64V6.16H185.25V8.07H188.28V9.1H185.25V11.08H188.64V12.12H184Z" fill="#D6FF62"/>
<path d="M190.994 12.12V6.18H188.854V5.12H194.394V6.18H192.244V12.12H190.994Z" fill="#D6FF62"/>
<path d="M194.738 12.12V5.12H195.988V8.05H198.778V5.12H200.028V12.12H198.778V9.12H195.988V12.12H194.738Z" fill="#D6FF62"/>
<path d="M203.559 12.24C201.579 12.24 200.459 10.96 200.459 8.62C200.459 6.49 201.569 5 203.559 5C205.549 5 206.649 6.5 206.649 8.62C206.649 10.77 205.539 12.24 203.559 12.24ZM201.799 8.62C201.799 9.52 201.929 10.23 202.229 10.64C202.519 11.04 202.999 11.23 203.559 11.23C204.139 11.23 204.589 11.04 204.869 10.65C205.199 10.2 205.319 9.48 205.319 8.62C205.319 7.76 205.189 7.04 204.879 6.6C204.599 6.2 204.159 6.01 203.599 6.01C202.979 6.01 202.519 6.23 202.239 6.6C201.929 7.03 201.799 7.77 201.799 8.62Z" fill="#D6FF62"/>
<path d="M209.633 12.24C208.083 12.24 206.783 11.49 206.743 9.87L208.033 9.73C208.053 10.73 208.713 11.24 209.653 11.24C210.513 11.24 211.173 10.92 211.173 10.15C211.173 9.33 210.283 9.32 209.273 9.09C208.053 8.8 206.943 8.35 206.943 7.02C206.943 5.56 208.283 5 209.493 5C210.953 5 212.053 5.57 212.223 7.18L210.953 7.4C210.913 6.43 210.363 5.99 209.493 5.99C208.783 5.99 208.203 6.31 208.203 6.95C208.203 7.59 208.963 7.8 209.883 7.97C211.283 8.23 212.443 8.59 212.443 10.08C212.443 11.66 211.133 12.24 209.633 12.24Z" fill="#D6FF62"/>
<path d="M215.705 12.12L218.105 5.12H219.475L221.865 12.12H220.575L220.005 10.28H217.575L217.005 12.12H215.705ZM217.895 9.23H219.675L219.145 7.54C219.035 7.22 218.885 6.68 218.785 6.3H218.765C218.655 6.73 218.545 7.1 218.415 7.54L217.895 9.23Z" fill="#D6FF62"/>
<path d="M222.23 12.12V5.12H224.57C225.8 5.12 227.35 5.33 227.35 7.29C227.35 9.23 225.81 9.44 224.57 9.44H223.47V12.12H222.23ZM223.47 8.44H224.55C225.3 8.44 226.11 8.39 226.11 7.29C226.11 6.15 225.3 6.13 224.56 6.13H223.47V8.44Z" fill="#D6FF62"/>
<path d="M227.88 12.12V11.1H228.69V6.14H227.88V5.12H230.74V6.14H229.94V11.1H230.74V12.12H227.88Z" fill="#D6FF62"/>
<rect x="180.5" y="16.6201" width="29.0894" height="10" rx="5" stroke="#D6FF62"/>
<path d="M184 25.1201V18.1201H186.3C188.41 18.1201 189.51 19.5101 189.51 21.6201C189.51 23.8201 188.35 25.1201 186.3 25.1201H184ZM185.24 24.1101H186.23C186.93 24.1101 187.44 23.9001 187.73 23.5001C188.07 23.0401 188.18 22.4301 188.18 21.6201C188.18 20.7901 188.08 20.2001 187.76 19.7401C187.47 19.3001 186.93 19.1301 186.23 19.1301H185.24V24.1101Z" fill="#D6FF62"/>
<path d="M189.303 25.1201L191.703 18.1201H193.073L195.463 25.1201H194.173L193.603 23.2801H191.173L190.603 25.1201H189.303ZM191.493 22.2301H193.273L192.743 20.5401C192.633 20.2201 192.483 19.6801 192.383 19.3001H192.363C192.253 19.7301 192.143 20.1001 192.013 20.5401L191.493 22.2301Z" fill="#D6FF62"/>
<path d="M197.067 25.1201V19.1801H194.927V18.1201H200.467V19.1801H198.317V25.1201H197.067Z" fill="#D6FF62"/>
<path d="M199.929 25.1201L202.329 18.1201H203.699L206.089 25.1201H204.799L204.229 23.2801H201.799L201.229 25.1201H199.929ZM202.119 22.2301H203.899L203.369 20.5401C203.259 20.2201 203.109 19.6801 203.009 19.3001H202.989C202.879 19.7301 202.769 20.1001 202.639 20.5401L202.119 22.2301Z" fill="#D6FF62"/>
<rect x="212.5" y="16.5" width="53.1299" height="10.24" rx="5.12" stroke="#D6FF62"/>
<path d="M216 25.12L218.4 18.12H219.77L222.16 25.12H220.87L220.3 23.28H217.87L217.3 25.12H216ZM218.19 22.23H219.97L219.44 20.54C219.33 20.22 219.18 19.68 219.08 19.3H219.06C218.95 19.73 218.84 20.1 218.71 20.54L218.19 22.23Z" fill="#D6FF62"/>
<path d="M225.167 25.24C223.227 25.24 222.047 24.01 222.047 21.62C222.047 19.43 223.207 18 225.167 18C226.557 18 227.627 18.75 227.987 20.18L226.717 20.43C226.547 19.56 226.057 19.01 225.177 19.01C224.587 19.01 224.137 19.17 223.837 19.58C223.507 20.02 223.377 20.7 223.377 21.62C223.377 22.55 223.507 23.19 223.817 23.62C224.107 24.03 224.547 24.23 225.167 24.23C226.027 24.23 226.507 23.69 226.737 22.92L228.027 23.26C227.537 24.49 226.577 25.24 225.167 25.24Z" fill="#D6FF62"/>
<path d="M227.808 25.12L230.208 18.12H231.578L233.968 25.12H232.678L232.108 23.28H229.678L229.108 25.12H227.808ZM229.998 22.23H231.778L231.248 20.54C231.138 20.22 230.988 19.68 230.888 19.3H230.868C230.758 19.73 230.648 20.1 230.518 20.54L229.998 22.23Z" fill="#D6FF62"/>
<path d="M234.283 25.12V18.12H236.583C238.693 18.12 239.793 19.51 239.793 21.62C239.793 23.82 238.633 25.12 236.583 25.12H234.283ZM235.523 24.11H236.513C237.213 24.11 237.723 23.9 238.013 23.5C238.353 23.04 238.463 22.43 238.463 21.62C238.463 20.79 238.363 20.2 238.043 19.74C237.753 19.3 237.213 19.13 236.513 19.13H235.523V24.11Z" fill="#D6FF62"/>
<path d="M240.434 25.12V18.12H245.074V19.16H241.684V21.07H244.714V22.1H241.684V24.08H245.074V25.12H240.434Z" fill="#D6FF62"/>
<path d="M245.638 25.12V18.12H247.488L248.328 21.22C248.538 21.99 248.698 22.7 248.778 23.16H248.818C248.898 22.65 249.078 21.88 249.258 21.23L250.108 18.12H251.928V25.12H250.808V21.03C250.808 20.76 250.828 19.86 250.848 19.23H250.808C250.628 20.04 250.458 20.75 250.368 21.09L249.428 24.43H248.148L247.218 21.09C247.118 20.74 246.908 19.87 246.768 19.23H246.718C246.738 19.86 246.758 20.78 246.758 21.06V25.12H245.638Z" fill="#D6FF62"/>
<path d="M252.757 25.12V24.1H253.568V19.14H252.757V18.12H255.618V19.14H254.818V24.1H255.618V25.12H252.757Z" fill="#D6FF62"/>
<path d="M255.97 25.12L258.37 18.12H259.74L262.13 25.12H260.84L260.27 23.28H257.84L257.27 25.12H255.97ZM258.16 22.23H259.94L259.41 20.54C259.3 20.22 259.15 19.68 259.05 19.3H259.03C258.92 19.73 258.81 20.1 258.68 20.54L258.16 22.23Z" fill="#D6FF62"/>
<path d="M9.8502 14.1602C8.74353 14.1602 7.8602 13.8235 7.2002 13.1502C6.53353 12.4835 6.2002 11.5802 6.2002 10.4402C6.2002 9.30022 6.52686 8.39355 7.1802 7.72022C7.82686 7.05355 8.71686 6.72021 9.8502 6.72021C10.7635 6.72021 11.5435 6.96688 12.1902 7.46021C12.8235 7.96021 13.2069 8.65021 13.3402 9.53022H11.3202C11.2269 9.17688 11.0502 8.90688 10.7902 8.72022C10.5302 8.52688 10.2169 8.43021 9.8502 8.43021C9.33686 8.43021 8.94686 8.60355 8.6802 8.95022C8.41353 9.29688 8.2802 9.79355 8.2802 10.4402C8.2802 11.0869 8.41353 11.5835 8.6802 11.9302C8.94686 12.2769 9.33686 12.4502 9.8502 12.4502C10.2502 12.4502 10.5802 12.3435 10.8402 12.1302C11.1069 11.9102 11.2769 11.6035 11.3502 11.2102H13.3502C13.2369 12.1435 12.8635 12.8669 12.2302 13.3802C11.5902 13.9002 10.7969 14.1602 9.8502 14.1602Z" fill="#D6FF62"/>
<path d="M19.999 13.1402C19.3124 13.8202 18.409 14.1602 17.289 14.1602C16.169 14.1602 15.2657 13.8202 14.579 13.1402C13.8924 12.4735 13.549 11.5735 13.549 10.4402C13.549 9.31355 13.8924 8.41021 14.579 7.73021C15.2724 7.05688 16.1757 6.72021 17.289 6.72021C18.4024 6.72021 19.3057 7.05688 19.999 7.73021C20.6857 8.41021 21.029 9.31355 21.029 10.4402C21.029 11.5735 20.6857 12.4735 19.999 13.1402ZM16.079 11.9002C16.379 12.2535 16.7824 12.4302 17.289 12.4302C17.7957 12.4302 18.199 12.2535 18.499 11.9002C18.799 11.5535 18.949 11.0669 18.949 10.4402C18.949 9.82688 18.799 9.34355 18.499 8.99021C18.199 8.63022 17.7957 8.45022 17.289 8.45022C16.7824 8.45022 16.379 8.63022 16.079 8.99021C15.779 9.34355 15.629 9.82688 15.629 10.4402C15.629 11.0669 15.779 11.5535 16.079 11.9002Z" fill="#D6FF62"/>
<path d="M21.5299 6.88022H24.8699C25.7232 6.88022 26.3899 7.10355 26.8699 7.55021C27.3566 7.99021 27.5999 8.59355 27.5999 9.36022C27.5999 10.1269 27.3566 10.7335 26.8699 11.1802C26.3899 11.6202 25.7232 11.8402 24.8699 11.8402H23.5299V14.0002H21.5299V6.88022ZM23.5299 10.1602H24.7199C24.9999 10.1602 25.2165 10.0935 25.3699 9.96022C25.5299 9.82022 25.6099 9.62022 25.6099 9.36022C25.6099 9.10022 25.5299 8.90355 25.3699 8.77022C25.2165 8.63022 24.9999 8.56021 24.7199 8.56021H23.5299V10.1602Z" fill="#D6FF62"/>
<path d="M31.6794 7.67022L32.1194 6.88022H34.3094L31.6994 11.2602V14.0002H29.6994V11.2602L27.0494 6.88022H29.2994L29.7594 7.68022C30.2594 8.55355 30.5861 9.13355 30.7394 9.42021C31.0461 8.82021 31.3594 8.23688 31.6794 7.67022Z" fill="#D6FF62"/>
<path d="M40.5288 12.3302L40.5688 13.2802C40.5821 13.5735 40.6421 13.8135 40.7488 14.0002H38.6888C38.6088 13.8469 38.5621 13.6069 38.5488 13.2802L38.5188 12.4702C38.5055 12.1102 38.4221 11.8669 38.2688 11.7402C38.1221 11.6069 37.8821 11.5402 37.5488 11.5402H36.5088V14.0002H34.5088V6.88022H38.0088C38.9155 6.88022 39.5855 7.07688 40.0188 7.47021C40.4455 7.87021 40.6588 8.37688 40.6588 8.99021C40.6588 9.35688 40.5621 9.68688 40.3688 9.98022C40.1821 10.2735 39.9088 10.5002 39.5488 10.6602C39.9088 10.7935 40.1555 10.9869 40.2888 11.2402C40.4288 11.4935 40.5088 11.8569 40.5288 12.3302ZM36.5088 8.44021V10.0802H37.7088C38.3021 10.0802 38.5988 9.80688 38.5988 9.26021C38.5988 8.71355 38.3021 8.44021 37.7088 8.44021H36.5088Z" fill="#D6FF62"/>
<path d="M43.2033 14.0002H41.2033V6.88022H43.2033V14.0002Z" fill="#D6FF62"/>
<path d="M47.6214 11.4402V9.92022H50.9914V14.0002H49.6314L49.4314 13.0702C49.2114 13.4235 48.898 13.6935 48.4914 13.8802C48.0847 14.0669 47.6314 14.1602 47.1314 14.1602C46.0914 14.1602 45.2614 13.8235 44.6414 13.1502C44.0147 12.4835 43.7014 11.5802 43.7014 10.4402C43.7014 9.30022 44.028 8.39355 44.6814 7.72022C45.328 7.05355 46.2314 6.72021 47.3914 6.72021C48.358 6.72021 49.1547 6.95021 49.7814 7.41021C50.4214 7.87688 50.7947 8.51021 50.9014 9.31022H48.8614C48.6547 8.72355 48.1714 8.43021 47.4114 8.43021C46.898 8.43021 46.498 8.60688 46.2114 8.96022C45.9247 9.31355 45.7814 9.80688 45.7814 10.4402C45.7814 11.0735 45.9314 11.5669 46.2314 11.9202C46.538 12.2735 46.968 12.4502 47.5214 12.4502C47.8747 12.4502 48.178 12.3602 48.4314 12.1802C48.6914 11.9935 48.858 11.7469 48.9314 11.4402H47.6214Z" fill="#D6FF62"/>
<path d="M56.142 9.48022V6.88022H58.142V14.0002H56.142V11.2602H53.692V14.0002H51.692V6.88022H53.692V9.48022H56.142Z" fill="#D6FF62"/>
<path d="M58.5432 6.88022H64.7432V8.66021H62.6432V14.0002H60.6432V8.66021H58.5432V6.88022Z" fill="#D6FF62"/>
<path d="M69.0899 7.77022H68.8199C68.4732 7.77022 68.2999 7.97022 68.2999 8.37022V8.53021H69.0899V10.3302H67.2299V8.40022C67.2299 7.38688 67.7665 6.88022 68.8399 6.88022H69.0899V7.77022Z" fill="#D6FF62"/>
<path d="M71.7208 12.3702H75.2608V14.0002H69.4708L69.5108 13.2802C69.5442 12.7602 69.6275 12.3235 69.7608 11.9702C69.8475 11.7235 69.9708 11.5002 70.1308 11.3002C70.5042 10.8469 71.0642 10.4869 71.8108 10.2202L72.2408 10.0702C72.6075 9.94355 72.8642 9.80688 73.0108 9.66022C73.1642 9.51355 73.2408 9.32355 73.2408 9.09021C73.2408 8.59688 72.9575 8.35022 72.3908 8.35022C72.0775 8.35022 71.8475 8.43355 71.7008 8.60022C71.5542 8.76021 71.4808 9.01021 71.4808 9.35021H69.5808C69.5742 8.52355 69.8108 7.88021 70.2908 7.42021C70.7708 6.95355 71.4875 6.72021 72.4408 6.72021C73.3142 6.72021 73.9975 6.92021 74.4908 7.32021C74.9775 7.72688 75.2208 8.24688 75.2208 8.88022C75.2208 9.53355 75.0442 10.0469 74.6908 10.4202C74.3175 10.8002 73.7575 11.1435 73.0108 11.4502L72.4808 11.6702C72.2142 11.7769 72.0275 11.8802 71.9208 11.9802C71.8142 12.0802 71.7475 12.2102 71.7208 12.3702Z" fill="#D6FF62"/>
<path d="M80.7839 10.9102H81.7039V12.5402H80.7839V14.0002H78.7839V12.5402H75.4639V10.6602L78.5739 6.88022H80.7839V10.9102ZM78.8539 10.9102V8.74022L77.0639 10.9102H78.8539Z" fill="#D6FF62"/>
<path d="M6.94035 23.9999H5.81035L5.11035 22.1499H1.91035L1.22035 23.9999H0.110352L2.89035 16.8799H4.12035L6.94035 23.9999ZM2.40035 20.8299L2.25035 21.2199H4.76035L4.61035 20.8299C4.25702 19.9499 3.88702 18.9765 3.50035 17.9099C3.04035 19.1365 2.67369 20.1099 2.40035 20.8299Z" fill="#D6FF62"/>
<path d="M8.28418 23.9999H7.28418V16.8799H8.28418V23.9999Z" fill="#D6FF62"/>
<path d="M10.2033 23.9999H9.20332V16.8799H10.2033V23.9999Z" fill="#D6FF62"/>
<path d="M18.3839 22.0199L18.4539 23.1299C18.4873 23.4965 18.5673 23.7865 18.6939 23.9999H17.5939C17.4606 23.8065 17.3906 23.5032 17.3839 23.0899L17.3539 22.3299C17.3339 21.8699 17.2306 21.5465 17.0439 21.3599C16.8573 21.1665 16.5573 21.0699 16.1439 21.0699H14.0739V23.9999H13.0039V16.8799H16.1139C16.8739 16.8799 17.4706 17.0565 17.9039 17.4099C18.3439 17.7565 18.5639 18.2365 18.5639 18.8499C18.5639 19.2832 18.4573 19.6499 18.2439 19.9499C18.0373 20.2432 17.7439 20.4499 17.3639 20.5699C17.7106 20.6699 17.9639 20.8399 18.1239 21.0799C18.2839 21.3132 18.3706 21.6265 18.3839 22.0199ZM14.0739 20.1799H16.1339C16.5473 20.1799 16.8706 20.0732 17.1039 19.8599C17.3439 19.6465 17.4639 19.3432 17.4639 18.9499C17.4639 18.5699 17.3406 18.2832 17.0939 18.0899C16.8539 17.8965 16.5073 17.7999 16.0539 17.7999H14.0739V20.1799Z" fill="#D6FF62"/>
<path d="M20.336 18.1099H19.316V17.0399H20.336V18.1099ZM20.326 23.9999H19.326V18.8399H20.326V23.9999Z" fill="#D6FF62"/>
<path d="M25.0751 19.5699V18.8399H26.0351V23.8099C26.0351 24.5165 25.8218 25.0699 25.3951 25.4699C24.9685 25.8765 24.3618 26.0799 23.5751 26.0799C22.9018 26.0799 22.3651 25.9265 21.9651 25.6199C21.5718 25.3132 21.3484 24.8932 21.2951 24.3599H22.2951C22.3751 24.9665 22.8051 25.2699 23.5851 25.2699C24.5518 25.2699 25.0351 24.7899 25.0351 23.8299V23.2599C24.6418 23.7932 24.0884 24.0599 23.3751 24.0599C22.6551 24.0599 22.0818 23.8165 21.6551 23.3299C21.2218 22.8365 21.0051 22.1899 21.0051 21.3899C21.0051 20.5899 21.2218 19.9432 21.6551 19.4499C22.0818 18.9632 22.6518 18.7199 23.3651 18.7199C24.1184 18.7199 24.6885 19.0032 25.0751 19.5699ZM23.5551 23.1999C24.0218 23.1999 24.3885 23.0399 24.6551 22.7199C24.9285 22.3932 25.0651 21.9499 25.0651 21.3899C25.0651 20.8299 24.9285 20.3899 24.6551 20.0699C24.3885 19.7432 24.0218 19.5799 23.5551 19.5799C23.0951 19.5799 22.7284 19.7432 22.4551 20.0699C22.1818 20.3965 22.0451 20.8365 22.0451 21.3899C22.0451 21.9499 22.1818 22.3932 22.4551 22.7199C22.7284 23.0399 23.0951 23.1999 23.5551 23.1999Z" fill="#D6FF62"/>
<path d="M29.5431 18.7199C30.1098 18.7199 30.5531 18.8799 30.8731 19.1999C31.1931 19.5132 31.3531 19.9599 31.3531 20.5399V23.9999H30.3531V20.6799C30.3531 19.9599 29.9898 19.5999 29.2631 19.5999C28.9298 19.5999 28.6298 19.7265 28.3631 19.9799C28.0964 20.2399 27.9631 20.6099 27.9631 21.0899V23.9999H26.9631V16.8799H27.9631V19.5499C28.3564 18.9965 28.8831 18.7199 29.5431 18.7199Z" fill="#D6FF62"/>
<path d="M34.5451 18.8399V19.6599H33.5051V22.7599C33.5051 22.9132 33.5484 23.0265 33.6351 23.0999C33.7284 23.1665 33.8818 23.1999 34.0951 23.1999H34.5451V23.9999C34.3251 24.0199 34.1218 24.0299 33.9351 24.0299C33.4484 24.0299 33.0885 23.9365 32.8551 23.7499C32.6218 23.5632 32.5051 23.2632 32.5051 22.8499V19.6599H31.6751V18.8399H32.5051V17.3599H33.5051V18.8399H34.5451Z" fill="#D6FF62"/>
<path d="M37.0278 24.1299C35.5944 24.1299 34.8411 23.5399 34.7678 22.3599H35.7678C35.8078 22.7199 35.9244 22.9732 36.1178 23.1199C36.3111 23.2665 36.6178 23.3399 37.0378 23.3399C37.7978 23.3399 38.1778 23.0999 38.1778 22.6199C38.1778 22.4132 38.0978 22.2532 37.9378 22.1399C37.7778 22.0265 37.4911 21.9332 37.0778 21.8599L36.5478 21.7599C35.4544 21.5599 34.9078 21.0465 34.9078 20.2199C34.9078 19.7599 35.0844 19.3965 35.4378 19.1299C35.7911 18.8565 36.2778 18.7199 36.8978 18.7199C38.3178 18.7199 39.0444 19.2965 39.0778 20.4499H38.1078C38.0878 20.1032 37.9811 19.8599 37.7878 19.7199C37.5944 19.5732 37.2978 19.4999 36.8978 19.4999C36.5778 19.4999 36.3311 19.5599 36.1578 19.6799C35.9844 19.7999 35.8978 19.9699 35.8978 20.1899C35.8978 20.3899 35.9744 20.5465 36.1278 20.6599C36.2811 20.7665 36.5244 20.8532 36.8578 20.9199L37.3978 21.0099C38.0311 21.1299 38.4878 21.3099 38.7678 21.5499C39.0478 21.7899 39.1878 22.1232 39.1878 22.5499C39.1878 23.0499 38.9978 23.4399 38.6178 23.7199C38.2378 23.9932 37.7078 24.1299 37.0278 24.1299Z" fill="#D6FF62"/>
<path d="M46.9937 22.0199L47.0637 23.1299C47.097 23.4965 47.177 23.7865 47.3037 23.9999H46.2037C46.0704 23.8065 46.0004 23.5032 45.9937 23.0899L45.9637 22.3299C45.9437 21.8699 45.8404 21.5465 45.6537 21.3599C45.467 21.1665 45.167 21.0699 44.7537 21.0699H42.6837V23.9999H41.6137V16.8799H44.7237C45.4837 16.8799 46.0804 17.0565 46.5137 17.4099C46.9537 17.7565 47.1737 18.2365 47.1737 18.8499C47.1737 19.2832 47.067 19.6499 46.8537 19.9499C46.647 20.2432 46.3537 20.4499 45.9737 20.5699C46.3204 20.6699 46.5737 20.8399 46.7337 21.0799C46.8937 21.3132 46.9804 21.6265 46.9937 22.0199ZM42.6837 20.1799H44.7437C45.157 20.1799 45.4804 20.0732 45.7137 19.8599C45.9537 19.6465 46.0737 19.3432 46.0737 18.9499C46.0737 18.5699 45.9504 18.2832 45.7037 18.0899C45.4637 17.8965 45.117 17.7999 44.6637 17.7999H42.6837V20.1799Z" fill="#D6FF62"/>
<path d="M52.5274 21.4599V21.7499H48.6374C48.684 22.2565 48.834 22.6399 49.0874 22.8999C49.3407 23.1532 49.684 23.2799 50.1174 23.2799C50.7707 23.2799 51.1974 22.9932 51.3974 22.4199H52.4074C52.2674 22.9465 51.994 23.3632 51.5874 23.6699C51.1874 23.9699 50.6907 24.1199 50.0974 24.1199C49.3574 24.1199 48.7607 23.8732 48.3074 23.3799C47.854 22.8865 47.6274 22.2332 47.6274 21.4199C47.6274 20.6065 47.854 19.9532 48.3074 19.4599C48.7607 18.9665 49.3507 18.7199 50.0774 18.7199C50.8374 18.7199 51.4374 18.9765 51.8774 19.4899C52.3107 20.0032 52.5274 20.6599 52.5274 21.4599ZM50.0774 19.5599C49.684 19.5599 49.3607 19.6799 49.1074 19.9199C48.8607 20.1599 48.7074 20.5065 48.6474 20.9599H51.4974C51.4507 20.5399 51.3007 20.2032 51.0474 19.9499C50.8007 19.6899 50.4774 19.5599 50.0774 19.5599Z" fill="#D6FF62"/>
<path d="M55.095 24.1299C53.6616 24.1299 52.9083 23.5399 52.835 22.3599H53.835C53.875 22.7199 53.9916 22.9732 54.185 23.1199C54.3783 23.2665 54.685 23.3399 55.105 23.3399C55.865 23.3399 56.245 23.0999 56.245 22.6199C56.245 22.4132 56.165 22.2532 56.005 22.1399C55.845 22.0265 55.5583 21.9332 55.145 21.8599L54.615 21.7599C53.5216 21.5599 52.975 21.0465 52.975 20.2199C52.975 19.7599 53.1516 19.3965 53.505 19.1299C53.8583 18.8565 54.345 18.7199 54.965 18.7199C56.385 18.7199 57.1116 19.2965 57.145 20.4499H56.175C56.155 20.1032 56.0483 19.8599 55.855 19.7199C55.6616 19.5732 55.365 19.4999 54.965 19.4999C54.645 19.4999 54.3983 19.5599 54.225 19.6799C54.0516 19.7999 53.965 19.9699 53.965 20.1899C53.965 20.3899 54.0416 20.5465 54.195 20.6599C54.3483 20.7665 54.5916 20.8532 54.925 20.9199L55.465 21.0099C56.0983 21.1299 56.555 21.3099 56.835 21.5499C57.115 21.7899 57.255 22.1232 57.255 22.5499C57.255 23.0499 57.065 23.4399 56.685 23.7199C56.305 23.9932 55.775 24.1299 55.095 24.1299Z" fill="#D6FF62"/>
<path d="M62.4594 21.4599V21.7499H58.5694C58.6161 22.2565 58.7661 22.6399 59.0194 22.8999C59.2727 23.1532 59.6161 23.2799 60.0494 23.2799C60.7027 23.2799 61.1294 22.9932 61.3294 22.4199H62.3394C62.1994 22.9465 61.9261 23.3632 61.5194 23.6699C61.1194 23.9699 60.6227 24.1199 60.0294 24.1199C59.2894 24.1199 58.6927 23.8732 58.2394 23.3799C57.7861 22.8865 57.5594 22.2332 57.5594 21.4199C57.5594 20.6065 57.7861 19.9532 58.2394 19.4599C58.6927 18.9665 59.2827 18.7199 60.0094 18.7199C60.7694 18.7199 61.3694 18.9765 61.8094 19.4899C62.2427 20.0032 62.4594 20.6599 62.4594 21.4599ZM60.0094 19.5599C59.6161 19.5599 59.2927 19.6799 59.0394 19.9199C58.7927 20.1599 58.6394 20.5065 58.5794 20.9599H61.4294C61.3827 20.5399 61.2327 20.2032 60.9794 19.9499C60.7327 19.6899 60.4094 19.5599 60.0094 19.5599Z" fill="#D6FF62"/>
<path d="M65.7163 18.7599C65.863 18.7599 65.9596 18.7632 66.0063 18.7699V19.7199H65.7563C65.243 19.7199 64.8463 19.8465 64.5663 20.0999C64.2863 20.3532 64.1463 20.7199 64.1463 21.1999V23.9999H63.1463V18.8399H64.1063V19.7599C64.433 19.0932 64.9696 18.7599 65.7163 18.7599Z" fill="#D6FF62"/>
<path d="M69.4375 20.7299L70.1275 18.8399H71.1875L69.2075 23.9999H68.0975L66.1275 18.8399H67.2075L67.9075 20.7299C68.3808 22.1365 68.6341 22.9032 68.6675 23.0299C68.6875 22.9632 68.7308 22.8299 68.7975 22.6299C68.8641 22.4299 68.9575 22.1565 69.0775 21.8099C69.1975 21.4565 69.3175 21.0965 69.4375 20.7299Z" fill="#D6FF62"/>
<path d="M75.961 21.4599V21.7499H72.071C72.1176 22.2565 72.2676 22.6399 72.521 22.8999C72.7743 23.1532 73.1176 23.2799 73.551 23.2799C74.2043 23.2799 74.631 22.9932 74.831 22.4199H75.841C75.701 22.9465 75.4276 23.3632 75.021 23.6699C74.621 23.9699 74.1243 24.1199 73.531 24.1199C72.791 24.1199 72.1943 23.8732 71.741 23.3799C71.2876 22.8865 71.061 22.2332 71.061 21.4199C71.061 20.6065 71.2876 19.9532 71.741 19.4599C72.1943 18.9665 72.7843 18.7199 73.511 18.7199C74.271 18.7199 74.871 18.9765 75.311 19.4899C75.7443 20.0032 75.961 20.6599 75.961 21.4599ZM73.511 19.5599C73.1176 19.5599 72.7943 19.6799 72.541 19.9199C72.2943 20.1599 72.141 20.5065 72.081 20.9599H74.931C74.8843 20.5399 74.7343 20.2032 74.481 19.9499C74.2343 19.6899 73.911 19.5599 73.511 19.5599Z" fill="#D6FF62"/>
<path d="M80.4379 19.5399V16.8799H81.4379V23.9999H80.4779V23.2399C80.0912 23.8265 79.5212 24.1199 78.7679 24.1199C78.0479 24.1199 77.4745 23.8765 77.0479 23.3899C76.6212 22.9032 76.4079 22.2465 76.4079 21.4199C76.4079 20.5932 76.6212 19.9365 77.0479 19.4499C77.4745 18.9632 78.0479 18.7199 78.7679 18.7199C79.4945 18.7199 80.0512 18.9932 80.4379 19.5399ZM77.4479 21.4599C77.4479 22.0332 77.5845 22.4765 77.8579 22.7899C78.1312 23.1032 78.4979 23.2599 78.9579 23.2599C79.4312 23.2599 79.8012 23.0965 80.0679 22.7699C80.3345 22.4565 80.4678 22.0065 80.4678 21.4199C80.4678 20.8399 80.3345 20.3865 80.0679 20.0599C79.8012 19.7399 79.4312 19.5799 78.9579 19.5799C78.4979 19.5799 78.1312 19.7465 77.8579 20.0799C77.5845 20.4132 77.4479 20.8732 77.4479 21.4599Z" fill="#D6FF62"/>
<path d="M112.606 20.6162C111.253 20.6162 110.203 20.3129 109.456 19.7062C108.719 19.0995 108.345 18.2315 108.336 17.1022H110.198C110.207 17.8115 110.417 18.3202 110.828 18.6282C111.248 18.9362 111.859 19.0902 112.662 19.0902C113.315 19.0902 113.815 18.9689 114.16 18.7262C114.505 18.4742 114.678 18.1149 114.678 17.6482C114.678 17.2562 114.529 16.9575 114.23 16.7522C113.941 16.5469 113.409 16.3649 112.634 16.2062L111.794 16.0382C109.657 15.6369 108.588 14.6289 108.588 13.0142C108.588 12.1555 108.915 11.4742 109.568 10.9702C110.221 10.4569 111.127 10.2002 112.284 10.2002C113.6 10.2002 114.594 10.4802 115.266 11.0402C115.947 11.6002 116.307 12.3842 116.344 13.3922H114.51C114.473 12.8229 114.281 12.4029 113.936 12.1322C113.6 11.8615 113.059 11.7262 112.312 11.7262C111.733 11.7262 111.29 11.8335 110.982 12.0482C110.674 12.2629 110.52 12.5662 110.52 12.9582C110.52 13.3595 110.66 13.6675 110.94 13.8822C111.229 14.0969 111.738 14.2789 112.466 14.4282L113.334 14.5962C114.501 14.8295 115.341 15.1795 115.854 15.6462C116.377 16.1035 116.638 16.7382 116.638 17.5502C116.638 18.5209 116.283 19.2769 115.574 19.8182C114.865 20.3502 113.875 20.6162 112.606 20.6162Z" fill="#D6FF62"/>
<path d="M133.162 10.5V12.194H127.702V14.546H132.645V16.17H127.702V18.774H133.135V20.468H125.812V10.5H133.162Z" fill="#D6FF62"/>
<path d="M140 10.5H148.288V12.194H145.096V20.468H143.192V12.194H140V10.5Z" fill="#D6FF62"/>
<path d="M155.444 15.246L157.11 10.5H159.854V20.468H158.048V17.43C158.048 15.5633 158.067 13.916 158.104 12.488C157.899 13.188 157.647 13.9533 157.348 14.784L155.332 20.468H153.778L151.748 14.784C151.394 13.748 151.146 12.992 151.006 12.516C151.044 13.9347 151.062 15.5727 151.062 17.43V20.468H149.242V10.5H151.986L153.708 15.344C153.82 15.6707 154.105 16.5713 154.562 18.046C154.861 17.01 155.155 16.0767 155.444 15.246Z" fill="#D6FF62"/>
<path fill-rule="evenodd" clip-rule="evenodd" d="M112.5 23C116.642 23 120 19.6421 120 15.5C120 11.3579 116.642 8 112.5 8C108.358 8 105 11.3579 105 15.5C105 19.6421 108.358 23 112.5 23ZM112.5 25C117.747 25 122 20.7467 122 15.5C122 10.2533 117.747 6 112.5 6C107.253 6 103 10.2533 103 15.5C103 20.7467 107.253 25 112.5 25Z" fill="#D6FF62"/>
<path fill-rule="evenodd" clip-rule="evenodd" d="M129.5 23C133.642 23 137 19.6421 137 15.5C137 11.3579 133.642 8 129.5 8C125.358 8 122 11.3579 122 15.5C122 19.6421 125.358 23 129.5 23ZM129.5 25C134.747 25 139 20.7467 139 15.5C139 10.2533 134.747 6 129.5 6C124.253 6 120 10.2533 120 15.5C120 20.7467 124.253 25 129.5 25Z" fill="#D6FF62"/>
<path fill-rule="evenodd" clip-rule="evenodd" d="M93 27L93 4L94 4L94 27L93 27Z" fill="#D6FF62"/>
<defs>
<clipPath id="clip0_222_1260">
<rect width="79" height="25.083" fill="white" transform="matrix(1 0 0 -1 408 26.083)"/>
</clipPath>
</defs>
</svg>
