<svg width="90" height="22" viewBox="0 0 90 22" fill="none" xmlns="http://www.w3.org/2000/svg">
<path d="M26.9399 7.99997H25.8099L25.1099 6.14997H21.9099L21.2199 7.99997H20.1099L22.8899 0.879971H24.1199L26.9399 7.99997ZM22.3999 4.82997L22.2499 5.21997H24.7599L24.6099 4.82997C24.2566 3.94997 23.8866 2.97664 23.4999 1.90997C23.0399 3.13664 22.6733 4.10997 22.3999 4.82997Z" fill="#D6FF62"/>
<path d="M28.3845 7.99997H27.3145V0.879971H28.3845V7.99997Z" fill="#D6FF62"/>
<path d="M36.6304 6.01997L36.7004 7.12997C36.7337 7.49664 36.8137 7.78664 36.9404 7.99997H35.8404C35.7071 7.80664 35.6371 7.5033 35.6304 7.08997L35.6004 6.32997C35.5804 5.86997 35.4771 5.54664 35.2904 5.35997C35.1037 5.16664 34.8037 5.06997 34.3904 5.06997H32.3204V7.99997H31.2504V0.879971H34.3604C35.1204 0.879971 35.7171 1.05664 36.1504 1.40997C36.5904 1.75664 36.8104 2.23664 36.8104 2.84997C36.8104 3.2833 36.7037 3.64997 36.4904 3.94997C36.2837 4.2433 35.9904 4.44997 35.6104 4.56997C35.9571 4.66997 36.2104 4.83997 36.3704 5.07997C36.5304 5.3133 36.6171 5.62664 36.6304 6.01997ZM32.3204 4.17997H34.3804C34.7937 4.17997 35.1171 4.0733 35.3504 3.85997C35.5904 3.64664 35.7104 3.3433 35.7104 2.94997C35.7104 2.56997 35.5871 2.2833 35.3404 2.08997C35.1004 1.89664 34.7537 1.79997 34.3004 1.79997H32.3204V4.17997Z" fill="#D6FF62"/>
<path d="M42.6734 0.879971V1.83997H38.6634V3.84997H42.2934V4.78997H38.6634V7.03997H42.6434V7.99997H37.5934V0.879971H42.6734Z" fill="#D6FF62"/>
<path d="M46.6134 5.01997L48.0734 0.879971H49.1834L46.5834 7.99997H45.3634L42.7134 0.879971H43.8434L45.3334 5.01997C45.5801 5.7133 45.7934 6.36664 45.9734 6.97997C46.0734 6.64664 46.2868 5.9933 46.6134 5.01997Z" fill="#D6FF62"/>
<path d="M52.3753 8.15997C51.322 8.15997 50.482 7.81664 49.8553 7.12997C49.2153 6.44997 48.8953 5.5533 48.8953 4.43997C48.8953 3.3333 49.2153 2.4333 49.8553 1.73997C50.482 1.05997 51.322 0.719971 52.3753 0.719971C53.4153 0.719971 54.2553 1.05997 54.8953 1.73997C55.5286 2.4333 55.8453 3.3333 55.8453 4.43997C55.8453 5.54664 55.5286 6.4433 54.8953 7.12997C54.2553 7.81664 53.4153 8.15997 52.3753 8.15997ZM50.6553 6.44997C51.082 6.94997 51.6553 7.19997 52.3753 7.19997C53.0953 7.19997 53.6686 6.94997 54.0953 6.44997C54.522 5.9633 54.7353 5.2933 54.7353 4.43997C54.7353 3.58664 54.522 2.9133 54.0953 2.41997C53.662 1.92664 53.0886 1.67997 52.3753 1.67997C51.662 1.67997 51.0886 1.92664 50.6553 2.41997C50.222 2.92664 50.0053 3.59997 50.0053 4.43997C50.0053 5.28664 50.222 5.95664 50.6553 6.44997Z" fill="#D6FF62"/>
<path d="M57.6532 0.879971V7.03997H61.1432V7.99997H56.5832V0.879971H57.6532Z" fill="#D6FF62"/>
<path d="M66.3418 7.41997C65.8351 7.90664 65.1285 8.14997 64.2218 8.14997C63.3151 8.14997 62.6085 7.90664 62.1018 7.41997C61.5951 6.92664 61.3418 6.2333 61.3418 5.33997V0.879971H62.4118V5.34997C62.4118 5.9633 62.5651 6.42664 62.8718 6.73997C63.1851 7.0533 63.6351 7.20997 64.2218 7.20997C64.8085 7.20997 65.2551 7.0533 65.5618 6.73997C65.8751 6.42664 66.0318 5.9633 66.0318 5.34997V0.879971H67.1018V5.33997C67.1018 6.2333 66.8485 6.92664 66.3418 7.41997Z" fill="#D6FF62"/>
<path d="M67.4327 0.879971H73.2427V1.83997H70.8827V7.99997H69.7927V1.83997H67.4327V0.879971Z" fill="#D6FF62"/>
<path d="M74.8364 7.99997H73.7664V0.879971H74.8364V7.99997Z" fill="#D6FF62"/>
<path d="M79.0609 8.15997C78.0075 8.15997 77.1675 7.81664 76.5409 7.12997C75.9009 6.44997 75.5809 5.5533 75.5809 4.43997C75.5809 3.3333 75.9009 2.4333 76.5409 1.73997C77.1675 1.05997 78.0075 0.719971 79.0609 0.719971C80.1009 0.719971 80.9409 1.05997 81.5809 1.73997C82.2142 2.4333 82.5309 3.3333 82.5309 4.43997C82.5309 5.54664 82.2142 6.4433 81.5809 7.12997C80.9409 7.81664 80.1009 8.15997 79.0609 8.15997ZM77.3409 6.44997C77.7675 6.94997 78.3409 7.19997 79.0609 7.19997C79.7809 7.19997 80.3542 6.94997 80.7809 6.44997C81.2075 5.9633 81.4209 5.2933 81.4209 4.43997C81.4209 3.58664 81.2075 2.9133 80.7809 2.41997C80.3475 1.92664 79.7742 1.67997 79.0609 1.67997C78.3475 1.67997 77.7742 1.92664 77.3409 2.41997C76.9075 2.92664 76.6909 3.59997 76.6909 4.43997C76.6909 5.28664 76.9075 5.95664 77.3409 6.44997Z" fill="#D6FF62"/>
<path d="M88.0488 3.03997V0.879971H89.0788V7.99997H87.8488L85.6588 4.54997C85.0188 3.54997 84.5554 2.78664 84.2688 2.25997C84.2954 3.0533 84.3088 4.24664 84.3088 5.83997V7.99997H83.2687V0.879971H84.4987L86.6988 4.32997C87.2921 5.26997 87.7554 6.03664 88.0888 6.62997C88.0621 5.82997 88.0488 4.6333 88.0488 3.03997Z" fill="#D6FF62"/>
<rect x="19.9999" y="11" width="34.863" height="10.24" rx="5.12" fill="#D6FF62"/>
<path d="M24.8899 19.74C23.3399 19.74 22.0399 18.99 21.9999 17.37L23.2899 17.23C23.3099 18.23 23.9699 18.74 24.9099 18.74C25.7699 18.74 26.4299 18.42 26.4299 17.65C26.4299 16.83 25.5399 16.82 24.5299 16.59C23.3099 16.3 22.1999 15.85 22.1999 14.52C22.1999 13.06 23.5399 12.5 24.7499 12.5C26.2099 12.5 27.3099 13.07 27.4799 14.68L26.2099 14.9C26.1699 13.93 25.6199 13.49 24.7499 13.49C24.0399 13.49 23.4599 13.81 23.4599 14.45C23.4599 15.09 24.2199 15.3 25.1399 15.47C26.5399 15.73 27.6999 16.09 27.6999 17.58C27.6999 19.16 26.3899 19.74 24.8899 19.74Z" fill="#1D1D1D"/>
<path d="M28.2976 19.62V12.62H32.9376V13.66H29.5476V15.57H32.5776V16.6H29.5476V18.58H32.9376V19.62H28.2976Z" fill="#1D1D1D"/>
<path d="M34.3118 19.62V18.19H35.7218V19.62H34.3118Z" fill="#1D1D1D"/>
<path d="M37.3496 19.62V18.6H38.1596V13.64H37.3496V12.62H40.2096V13.64H39.4096V18.6H40.2096V19.62H37.3496Z" fill="#1D1D1D"/>
<path d="M41.102 19.62V12.62H42.492L44.402 16.22C44.622 16.65 44.992 17.45 45.252 18.05H45.282C45.232 17.42 45.192 16.5 45.192 16.14V12.62H46.372V19.62H44.962L43.012 15.9C42.832 15.56 42.452 14.75 42.212 14.19H42.192C42.242 14.92 42.272 15.83 42.272 16.06V19.62H41.102Z" fill="#1D1D1D"/>
<path d="M50.0029 19.74C48.0629 19.74 46.8829 18.51 46.8829 16.12C46.8829 13.93 48.0429 12.5 50.0029 12.5C51.3929 12.5 52.4629 13.25 52.8229 14.68L51.5529 14.93C51.3829 14.06 50.8929 13.51 50.0129 13.51C49.4229 13.51 48.9729 13.67 48.6729 14.08C48.3429 14.52 48.2129 15.2 48.2129 16.12C48.2129 17.05 48.3429 17.69 48.6529 18.12C48.9429 18.53 49.3829 18.73 50.0029 18.73C50.8629 18.73 51.3429 18.19 51.5729 17.42L52.8629 17.76C52.3729 18.99 51.4129 19.74 50.0029 19.74Z" fill="#1D1D1D"/>
<rect x="58.4999" y="11.5" width="24.1371" height="9.09" rx="4.545" stroke="#D6FF62"/>
<path d="M62.5799 19.59C60.8899 19.59 59.9999 18.38 59.9999 16.04C59.9999 13.96 60.8299 12.5 62.5799 12.5C64.3399 12.5 65.1799 13.97 65.1799 16.04C65.1799 18.14 64.3399 19.59 62.5799 19.59ZM61.2699 16.04C61.2699 16.61 61.2999 17.09 61.3799 17.47L63.2199 13.65C63.0499 13.55 62.8399 13.5 62.5799 13.5C62.1099 13.5 61.7999 13.67 61.5999 14.01C61.3399 14.42 61.2699 15.1 61.2699 16.04ZM61.8899 18.42C62.0699 18.55 62.2899 18.61 62.5799 18.61C62.9899 18.61 63.2799 18.48 63.4799 18.22C63.8099 17.81 63.8999 17.07 63.8999 16.04C63.8999 15.42 63.8699 14.91 63.7699 14.52L61.8899 18.42Z" fill="#D6FF62"/>
<path d="M68.0932 19.59C66.4032 19.59 65.5132 18.38 65.5132 16.04C65.5132 13.96 66.3432 12.5 68.0932 12.5C69.8532 12.5 70.6932 13.97 70.6932 16.04C70.6932 18.14 69.8532 19.59 68.0932 19.59ZM66.7832 16.04C66.7832 16.61 66.8132 17.09 66.8932 17.47L68.7332 13.65C68.5632 13.55 68.3532 13.5 68.0932 13.5C67.6232 13.5 67.3132 13.67 67.1132 14.01C66.8532 14.42 66.7832 15.1 66.7832 16.04ZM67.4032 18.42C67.5832 18.55 67.8032 18.61 68.0932 18.61C68.5032 18.61 68.7932 18.48 68.9932 18.22C69.3232 17.81 69.4132 17.07 69.4132 16.04C69.4132 15.42 69.3832 14.91 69.2832 14.52L67.4032 18.42Z" fill="#D6FF62"/>
<path d="M71.0165 19.47C71.1065 17.79 71.9265 16.97 73.0565 16.26C73.8165 15.78 74.5465 15.4 74.5465 14.53C74.5465 13.9 74.2465 13.49 73.5865 13.49C72.6265 13.49 72.4965 14.29 72.5065 14.87L71.2665 14.69C71.2465 13.64 71.8565 12.5 73.6265 12.5C74.9265 12.5 75.7765 13.26 75.7765 14.56C75.7765 15.75 75.0365 16.33 74.0065 16.97C73.2565 17.43 72.6365 17.8 72.4665 18.45H75.7865V19.47H71.0165Z" fill="#D6FF62"/>
<path d="M79.127 15.45C79.127 15.18 79.137 14.65 79.147 14.17C78.917 14.58 78.597 15.06 78.4471 15.28L77.847 16.17C77.687 16.41 77.437 16.76 77.1971 17.09C77.5271 17.08 77.897 17.07 78.067 17.07H79.127V15.45ZM76.137 18.06V16.94L79.087 12.62H80.257V17.07H81.137V18.06H80.257V19.47H79.127V18.06H76.137Z" fill="#D6FF62"/>
<path d="M0.879972 19.25L0.879972 18.39H7.99997V19.46H2.91997V21.09H2.12997L2.11997 20.93C2.08664 20.4167 1.97997 20.0333 1.79997 19.78C1.61331 19.52 1.30664 19.3433 0.879972 19.25Z" fill="#D6FF62"/>
<path d="M4.19997 13.5895C4.5333 12.7362 5.12664 12.3095 5.97997 12.3095C6.64664 12.3095 7.1733 12.5529 7.55997 13.0395C7.95997 13.5262 8.15997 14.1729 8.15997 14.9795C8.15997 15.7862 7.95997 16.4329 7.55997 16.9195C7.17331 17.4062 6.64664 17.6495 5.97997 17.6495C5.12664 17.6495 4.5333 17.2229 4.19997 16.3695C3.87997 17.0295 3.3733 17.3595 2.67997 17.3595C2.06664 17.3595 1.58664 17.1362 1.23997 16.6895C0.893305 16.2562 0.719971 15.6862 0.719971 14.9795C0.719971 14.2795 0.893304 13.7062 1.23997 13.2595C1.58664 12.8195 2.06664 12.5995 2.67997 12.5995C3.3733 12.5995 3.87997 12.9295 4.19997 13.5895ZM2.70997 13.6095C2.35664 13.6095 2.0833 13.7362 1.88997 13.9895C1.69664 14.2429 1.59997 14.5729 1.59997 14.9795C1.59997 15.3862 1.69664 15.7162 1.88997 15.9695C2.08331 16.2229 2.35664 16.3495 2.70997 16.3495C3.0633 16.3495 3.33664 16.2229 3.52997 15.9695C3.7233 15.7162 3.81997 15.3862 3.81997 14.9795C3.81997 14.5729 3.7233 14.2429 3.52997 13.9895C3.33664 13.7362 3.0633 13.6095 2.70997 13.6095ZM6.90997 16.1395C7.1433 15.8529 7.25997 15.4662 7.25997 14.9795C7.25997 14.4929 7.14331 14.1062 6.90997 13.8195C6.67664 13.5395 6.3533 13.3995 5.93997 13.3995C5.52664 13.3995 5.20664 13.5395 4.97997 13.8195C4.74664 14.0995 4.62997 14.4862 4.62997 14.9795C4.62997 15.4795 4.74664 15.8695 4.97997 16.1495C5.20664 16.4295 5.52664 16.5695 5.93997 16.5695C6.35997 16.5695 6.68331 16.4262 6.90997 16.1395Z" fill="#D6FF62"/>
<path d="M8.15997 9.08179C8.15997 9.96179 7.83997 10.6318 7.19997 11.0918C6.55997 11.5518 5.63997 11.7818 4.43997 11.7818C3.23997 11.7818 2.31997 11.5518 1.67997 11.0918C1.03997 10.6318 0.719971 9.96179 0.719971 9.08179C0.719971 8.19512 1.03997 7.52512 1.67997 7.07179C2.3133 6.61179 3.2333 6.38179 4.43997 6.38179C5.64664 6.38179 6.56997 6.61179 7.20997 7.07179C7.8433 7.52512 8.15997 8.19512 8.15997 9.08179ZM7.22997 9.08179C7.22997 8.02179 6.29997 7.49179 4.43997 7.49179C2.57997 7.49179 1.64997 8.02179 1.64997 9.08179C1.64997 10.1351 2.57997 10.6618 4.43997 10.6618C6.29997 10.6618 7.22997 10.1351 7.22997 9.08179Z" fill="#D6FF62"/>
<path d="M8.15997 3.04155C8.15997 3.92155 7.83997 4.59155 7.19997 5.05155C6.55997 5.51155 5.63997 5.74155 4.43997 5.74155C3.23997 5.74155 2.31997 5.51155 1.67997 5.05155C1.03997 4.59155 0.719971 3.92155 0.719971 3.04155C0.719971 2.15489 1.03997 1.48489 1.67997 1.03155C2.3133 0.571553 3.2333 0.341553 4.43997 0.341553C5.64664 0.341553 6.56997 0.571553 7.20997 1.03155C7.8433 1.48489 8.15997 2.15489 8.15997 3.04155ZM7.22997 3.04155C7.22997 1.98155 6.29997 1.45155 4.43997 1.45155C2.57997 1.45155 1.64997 1.98155 1.64997 3.04155C1.64997 4.09489 2.57997 4.62155 4.43997 4.62155C6.29997 4.62155 7.22997 4.09489 7.22997 3.04155Z" fill="#D6FF62"/>
<path fill-rule="evenodd" clip-rule="evenodd" d="M12 21L12 4.37114e-08L13 0L13 21L12 21Z" fill="#D6FF62"/>
</svg>
